<?xml version="1.0" encoding="UTF-8"?>
<svg width="500" height="500" xmlns="http://www.w3.org/2000/svg">
  <path d="M 219 100  L 219 99  L 218 97  L 218 95  L 216 93  L 215 91  L 213 89  L 210 87  L 208 86  L 206 84  L 204 83  L 202 82  L 197 80  L 196 79  L 194 79  L 191 79  L 187 79  L 185 79  L 181 79  L 178 79  L 177 79  L 172 79  L 171 79  L 168 79  L 166 79  L 165 79  L 163 79  L 162 79  L 160 81  L 154 83  L 150 85  L 146 88  L 145 89  L 143 91  L 141 93  L 139 94  L 138 95  L 136 96  L 134 97  L 133 101  L 132 103  L 131 105  L 129 109  L 128 111  L 126 116  L 124 120  L 123 121  L 122 124  L 121 129  L 119 133  L 118 137  L 117 138  L 117 141  L 117 144  L 116 146  L 115 151  L 113 158  L 112 160  L 111 165  L 110 170  L 109 173  L 108 173  L 107 175  L 107 177  L 106 181  L 106 183  L 106 185  L 106 188  L 106 190  L 105 190  L 105 195  L 105 196  L 105 200  L 105 202  L 105 204  L 105 206  L 105 209  L 105 211  L 105 213  L 105 215  L 105 217  L 105 218  L 105 220  L 105 222  L 105 226  L 105 229  L 105 232  L 107 237  L 107 239  L 108 245  L 108 247  L 108 249  L 108 251  L 109 257  L 111 266  L 112 268  L 112 272  L 113 278  L 114 282  L 114 286  L 114 290  L 115 294  L 116 296  L 118 302  L 120 307  L 122 311  L 123 313  L 124 315  L 125 316  L 125 318  L 125 320  L 127 325  L 129 328  L 130 330  L 132 333  L 133 334  L 134 336  L 135 338  L 138 341  L 139 342  L 140 344  L 141 346  L 142 348  L 144 349  L 147 353  L 149 357  L 154 360  L 154 361  L 158 365  L 159 366  L 161 368  L 165 371  L 168 372  L 170 374  L 174 375  L 176 375  L 177 375  L 179 376  L 181 376  L 185 377  L 186 377  L 188 377  L 190 377  L 192 377  L 193 377  L 195 377  L 196 377  L 197 377  L 199 377  L 200 377  L 202 377  L 204 377  L 206 377  L 211 377  L 213 377  L 218 377  L 220 377  L 224 376  L 227 376  L 229 375  L 230 374  L 232 373  L 234 372  L 238 370  L 240 369  L 241 369  L 243 368  L 245 367  L 247 365  L 248 362  L 251 360  L 255 355  L 255 353  L 256 352  L 256 350  L 258 344  L 259 341  L 260 339  L 261 334  L 262 328  L 263 324  L 264 322  L 265 319  L 267 313  L 267 312  L 267 307  L 267 304  L 268 302  L 268 300  L 271 294  L 272 290  L 272 288  L 273 286  L 273 284  L 274 282  L 274 279  L 275 277  L 276 275  L 277 273  L 277 272  L 278 270  L 278 266  L 278 264  L 278 259  L 279 257  L 279 254  L 279 252  L 279 250  L 279 247  L 279 246  L 279 245  L 279 241  L 279 238  L 279 237  L 279 236  L 279 234  L 279 232  L 279 230  L 279 227  L 279 225  L 279 224  L 279 223  L 279 222  L 278 218  L 278 217  L 277 216  L 277 215  L 277 213  L 276 211  L 276 209  L 276 207  L 275 205  L 274 202  L 273 200  L 272 199  L 271 196  L 270 194  L 270 191  L 269 190  L 268 190  L 268 188  L 267 185  L 267 183  L 266 182  L 266 181  L 266 180  L 265 176  L 265 175  L 265 173  L 264 173  L 264 171  L 264 170  L 263 168  L 263 167  L 262 164  L 262 162  L 261 161  L 261 158  L 261 156  L 260 154  L 260 152  L 259 150  L 258 147  L 258 145  L 257 144  L 257 142  L 257 141  L 256 141  L 256 139  L 255 137  L 253 133  L 252 131  L 251 129  L 250 128  L 249 126  L 248 126  L 246 123  L 245 122  L 245 121  L 244 119  L 242 117  L 239 116  L 239 115  L 237 114  L 236 113  L 234 113  L 233 111  L 231 108  L 230 106  L 229 104  L 228 102  L 227 100  L 226 99  L 225 97  L 223 97  L 221 96  L 221 95  L 220 94  L 219 93  L 218 91  L 217 90  L 216 90  L 215 89  L 214 88  L 213 87  L 210 87 " fill="none" stroke="#271897" stroke-width="2"/>
</svg>