<?xml version="1.0" encoding="UTF-8"?>
<svg width="500" height="500" xmlns="http://www.w3.org/2000/svg">
  <path d="M 128 187  L 130 188  L 131 188  L 133 188  L 134 188  L 139 179  L 143 173  L 146 167  L 150 162  L 152 160  L 156 155  L 158 152  L 160 148  L 163 142  L 168 134  L 171 129  L 173 127  L 177 119  L 179 115  L 182 109  L 186 104  L 189 99  L 190 95  L 193 90  L 195 86  L 196 80  L 198 75  L 200 71  L 200 69  L 201 68  L 202 64  L 204 62  L 205 61  L 205 59  L 206 57  L 206 55  L 207 54  L 207 55  L 207 57  L 207 64  L 207 67  L 207 72  L 207 77  L 207 79  L 207 84  L 207 85  L 207 91  L 207 94  L 207 100  L 207 105  L 207 107  L 207 112  L 207 116  L 207 121  L 207 125  L 207 126  L 207 129  L 207 132  L 207 139  L 207 145  L 207 148  L 206 154  L 205 160  L 205 165  L 205 169  L 205 176  L 204 184  L 202 189  L 200 195  L 199 200  L 198 204  L 197 209  L 197 213  L 197 217  L 197 218  L 197 220  L 197 224  L 197 228  L 197 230  L 197 231  L 197 233  L 197 234  L 197 236  L 197 237  L 197 238  L 197 241  L 197 242  L 197 243  L 197 245  L 197 248  L 197 250  L 197 254  L 197 256  L 197 261  L 197 265  L 197 269  L 197 271  L 197 273  L 197 275  L 197 278  L 197 284  L 197 285  L 197 288  L 197 292  L 197 296  L 196 302  L 194 303  L 194 305  L 194 307  L 194 314  L 194 319  L 194 321  L 194 324  L 194 325  L 194 327  L 194 329  L 194 330  L 194 332  L 194 334  L 194 336  L 194 338  L 194 339  L 194 340  L 194 342  L 194 343  L 194 347  L 194 351  L 194 354  L 194 356  L 195 362  L 195 364  L 196 366  L 196 367  L 196 369  L 196 371  L 196 372  L 197 372  L 198 372  L 198 370  L 198 369  L 198 368  L 198 367  L 196 367  L 192 366  L 188 366  L 185 366  L 183 366  L 180 366  L 179 366  L 177 366  L 175 366  L 173 366  L 171 366  L 169 366  L 163 366  L 159 366  L 157 366  L 156 366  L 152 366  L 150 366  L 147 366  L 143 366  L 141 366  L 140 366  L 134 366  L 129 366  L 124 366  L 121 366  L 119 366  L 117 366  L 116 366  L 115 366  L 113 366  L 111 366  L 109 366  L 107 366  L 106 366  L 104 366  L 103 366  L 101 366  L 99 366  L 98 366  L 96 366  L 95 366  L 94 366  L 93 366  L 92 366  L 91 366  L 90 366  L 90 365  L 91 365  L 92 365  L 93 365  L 94 364  L 95 363  L 96 362  L 97 361  L 99 361  L 100 361  L 101 361  L 101 362  L 101 363  L 101 364  L 103 364  L 106 365  L 109 365  L 110 365  L 111 365  L 112 366  L 113 366  L 115 366  L 117 366  L 118 366  L 120 366  L 121 366  L 123 366  L 125 366  L 126 366  L 128 366  L 129 366  L 133 366  L 135 366  L 138 366  L 139 366  L 140 366  L 142 366  L 143 366  L 145 366  L 146 366  L 147 366  L 149 366  L 150 366  L 152 366  L 155 366  L 157 366  L 158 366  L 162 366  L 164 366  L 165 366  L 169 366  L 170 366  L 171 366  L 173 366  L 175 366  L 179 366  L 181 366  L 183 366  L 185 366  L 186 366  L 187 366  L 188 366  L 190 366  L 191 366  L 193 366  L 194 366  L 196 366  L 197 366  L 199 366  L 200 366  L 201 366  L 204 366  L 205 366  L 207 367  L 209 367  L 210 367  L 212 367  L 214 367  L 215 367  L 216 367  L 219 367  L 220 367  L 221 367  L 222 367  L 223 367  L 225 367  L 226 367  L 228 367  L 230 367  L 237 367  L 252 367  L 394 374  L 404 374  L 407 374 " fill="none" stroke="#271897" stroke-width="2"/>
</svg>