<?xml version="1.0" encoding="UTF-8"?>
<svg width="500" height="500" xmlns="http://www.w3.org/2000/svg">
  <path d="M 131 178  L 130 181  L 131 180  L 134 178  L 138 173  L 139 171  L 142 168  L 144 164  L 146 159  L 149 154  L 151 151  L 153 146  L 154 144  L 155 140  L 157 138  L 159 135  L 161 131  L 163 129  L 165 127  L 168 125  L 172 122  L 176 119  L 180 117  L 181 116  L 183 114  L 185 113  L 193 111  L 194 111  L 196 111  L 198 110  L 199 110  L 202 110  L 205 110  L 209 110  L 212 110  L 215 110  L 216 110  L 218 110  L 219 110  L 222 110  L 226 110  L 229 110  L 230 110  L 232 110  L 234 110  L 237 111  L 239 112  L 241 113  L 244 116  L 246 117  L 247 118  L 248 120  L 249 121  L 250 123  L 250 124  L 251 125  L 251 126  L 252 129  L 253 130  L 254 131  L 254 132  L 254 133  L 255 134  L 255 136  L 256 136  L 256 138  L 257 140  L 257 141  L 257 142  L 257 145  L 257 147  L 257 148  L 257 150  L 257 152  L 257 154  L 257 155  L 257 157  L 257 159  L 257 160  L 257 162  L 257 163  L 257 165  L 257 166  L 257 169  L 257 172  L 256 174  L 256 175  L 255 177  L 254 180  L 253 182  L 251 187  L 248 193  L 243 198  L 240 205  L 237 210  L 234 214  L 233 216  L 231 220  L 230 224  L 227 229  L 226 230  L 225 233  L 224 235  L 222 237  L 217 244  L 214 249  L 212 253  L 207 259  L 197 272  L 196 272  L 194 275  L 191 278  L 187 284  L 185 287  L 183 289  L 180 294  L 178 296  L 171 306  L 168 312  L 163 315  L 160 318  L 159 321  L 157 323  L 156 324  L 154 327  L 151 331  L 148 335  L 144 340  L 142 343  L 140 345  L 139 349  L 136 353  L 135 355  L 134 356  L 132 357  L 130 358  L 129 359  L 128 361  L 128 362  L 128 364  L 128 365  L 127 366  L 127 367  L 127 368  L 127 369  L 127 370  L 129 370  L 130 370  L 132 370  L 133 370  L 135 370  L 139 370  L 142 370  L 145 370  L 150 370  L 156 370  L 159 369  L 161 369  L 163 369  L 165 369  L 167 369  L 168 369  L 170 369  L 171 369  L 172 369  L 174 368  L 180 368  L 187 368  L 189 368  L 192 367  L 196 366  L 198 366  L 201 366  L 205 366  L 210 366  L 215 366  L 223 365  L 228 364  L 233 364  L 241 364  L 247 364  L 253 364  L 256 364  L 260 364  L 265 364  L 273 364  L 277 364  L 282 364  L 286 364  L 289 364  L 291 364  L 294 364  L 297 364  L 299 364  L 308 364  L 312 365  L 314 365  L 317 365  L 320 365  L 321 365  L 322 365  L 323 365  L 324 365  L 325 365  L 328 365  L 330 365  L 334 365  L 337 365  L 338 365  L 339 365  L 340 365  L 341 365  L 342 365  L 342 366  L 342 367 " fill="none" stroke="black" stroke-width="2"/>
</svg>