<?xml version="1.0" encoding="UTF-8"?>
<svg width="500" height="500" xmlns="http://www.w3.org/2000/svg">
  <path d="M 168 158  L 168 159  L 168 160  L 169 159  L 170 158  L 171 158  L 172 157  L 173 155  L 176 151  L 180 147  L 181 146  L 183 145  L 185 144  L 186 143  L 187 142  L 188 141  L 189 140  L 189 139  L 190 138  L 191 137  L 192 136  L 193 135  L 195 134  L 196 134  L 196 133  L 198 133  L 201 132  L 202 131  L 203 131  L 204 131  L 206 131  L 208 131  L 210 131  L 212 131  L 214 131  L 215 131  L 216 131  L 218 131  L 220 131  L 222 131  L 223 131  L 225 132  L 226 132  L 227 132  L 229 133  L 231 134  L 232 134  L 235 135  L 236 136  L 238 136  L 241 136  L 243 136  L 245 136  L 246 136  L 248 137  L 250 138  L 251 138  L 252 140  L 252 141  L 253 143  L 254 144  L 255 145  L 256 145  L 256 146  L 257 147  L 257 148  L 257 150  L 257 151  L 257 152  L 257 153  L 257 155  L 257 156  L 257 158  L 258 159  L 258 161  L 258 162  L 258 164  L 258 167  L 258 168  L 258 169  L 258 171  L 258 172  L 258 174  L 258 175  L 258 176  L 258 177  L 258 178  L 258 180  L 258 183  L 258 185  L 258 186  L 258 187  L 258 189  L 258 190  L 258 192  L 257 195  L 255 200  L 254 204  L 253 206  L 252 208  L 251 209  L 250 210  L 249 212  L 248 214  L 247 215  L 245 217  L 244 218  L 243 219  L 242 220  L 241 221  L 239 222  L 238 223  L 236 224  L 234 225  L 232 226  L 231 226  L 228 227  L 226 227  L 224 228  L 223 228  L 221 228  L 220 228  L 218 228  L 217 228  L 215 228  L 214 228  L 212 228  L 211 228  L 209 228  L 208 228  L 207 228  L 205 228  L 204 228  L 202 228  L 201 228  L 202 228  L 203 228  L 205 228  L 206 228  L 207 227  L 208 225  L 209 225  L 211 225  L 212 224  L 215 224  L 216 224  L 217 224  L 219 224  L 220 224  L 221 224  L 223 224  L 224 224  L 226 224  L 228 224  L 230 224  L 232 224  L 234 224  L 235 224  L 236 224  L 238 224  L 239 224  L 240 224  L 242 224  L 244 224  L 245 224  L 246 224  L 247 224  L 248 224  L 249 225  L 250 227  L 251 231  L 251 233  L 252 235  L 252 237  L 253 239  L 254 241  L 254 243  L 255 245  L 255 247  L 256 249  L 256 252  L 257 254  L 257 256  L 257 258  L 258 260  L 258 263  L 258 264  L 259 266  L 260 267  L 260 269  L 260 270  L 260 272  L 260 274  L 262 277  L 262 280  L 262 282  L 262 285  L 262 286  L 262 287  L 262 289  L 262 291  L 262 292  L 262 294  L 262 295  L 262 296  L 262 297  L 262 298  L 261 301  L 261 302  L 260 304  L 259 305  L 256 306  L 255 306  L 254 307  L 254 308  L 253 309  L 252 310  L 250 312  L 247 312  L 243 314  L 241 314  L 239 315  L 238 315  L 236 316  L 235 316  L 234 316  L 232 316  L 230 316  L 228 316  L 226 317  L 224 317  L 222 318  L 221 318  L 220 318  L 219 319  L 218 320  L 217 320  L 215 320  L 214 320  L 212 320  L 210 320  L 209 320  L 208 320  L 207 320  L 205 320  L 204 321  L 202 321  L 201 321  L 199 321  L 197 321  L 196 321  L 194 321  L 192 321  L 191 321  L 190 321  L 189 322  L 187 322  L 186 322  L 185 322  L 183 322  L 182 322  L 180 322  L 179 322  L 178 322  L 177 322  L 176 322  L 175 322  L 174 322  L 172 322  L 169 322  L 167 322  L 165 322  L 164 322  L 163 322  L 162 321  L 160 320  L 159 319  L 158 318  L 157 317  L 156 317  L 155 316  L 153 315  L 151 312  L 149 311  L 147 308  L 146 307  L 143 303  L 142 301  L 142 298  L 141 297  L 141 295  L 141 294  L 141 293  L 141 290  L 141 286  L 141 283  L 141 280  L 141 278 " fill="none" stroke="black" stroke-width="2"/>
</svg>