<?xml version="1.0" encoding="UTF-8"?>
<svg width="500" height="500" xmlns="http://www.w3.org/2000/svg">
  <path d="M 242 83  L 243 82  L 242 82  L 242 83  L 241 85  L 240 86  L 239 87  L 237 91  L 236 93  L 233 96  L 230 99  L 227 102  L 224 106  L 221 110  L 216 115  L 215 116  L 213 119  L 210 122  L 209 124  L 208 126  L 206 130  L 202 134  L 197 140  L 191 147  L 187 153  L 183 156  L 180 159  L 177 162  L 175 166  L 171 170  L 169 172  L 165 176  L 157 185  L 154 187  L 151 192  L 148 195  L 146 196  L 145 198  L 139 205  L 128 215  L 114 226  L 105 235  L 103 238  L 101 241  L 101 242  L 104 244  L 115 244  L 127 245  L 141 245  L 152 245  L 162 245  L 171 245  L 181 243  L 188 242  L 197 241  L 209 239  L 214 238  L 215 238  L 216 238  L 220 238  L 222 238  L 224 238  L 226 238  L 230 238  L 232 237  L 233 237  L 234 237  L 236 237  L 238 237  L 242 237  L 244 237  L 245 237  L 247 237  L 250 237  L 251 237  L 253 237  L 256 237  L 259 236  L 259 235  L 260 234  L 261 234  L 262 233  L 262 232  L 262 230  L 263 229  L 263 227  L 263 225  L 262 223  L 261 222  L 260 221  L 259 218  L 257 216  L 256 214  L 255 213  L 255 212  L 255 211  L 255 208  L 255 207  L 255 206  L 255 204  L 255 203  L 255 201  L 255 200  L 255 198  L 255 196  L 255 195  L 255 193  L 255 191  L 255 190  L 255 189  L 255 188  L 255 186  L 255 185  L 255 183  L 256 181  L 256 180  L 256 179  L 257 179  L 257 182  L 257 187  L 257 192  L 257 194  L 257 196  L 257 200  L 257 202  L 257 203  L 257 204  L 257 210  L 257 211  L 257 214  L 257 216  L 257 217  L 257 220  L 257 222  L 256 226  L 254 230  L 254 233  L 254 235  L 254 237  L 254 239  L 254 240  L 254 242  L 254 245  L 253 247  L 253 250  L 253 253  L 253 256  L 253 259  L 253 263  L 252 267  L 250 271  L 250 274  L 250 276  L 250 279  L 250 281  L 250 284  L 250 287  L 250 289  L 249 298  L 249 301  L 248 307  L 246 318  L 245 324  L 244 331  L 243 338  L 243 346  L 243 355  L 243 360  L 243 367  L 243 369  L 243 372  L 243 378  L 243 381  L 243 383  L 243 387  L 243 391  L 243 394  L 243 396  L 243 398  L 243 402  L 244 404 " fill="none" stroke="black" stroke-width="2"/>
</svg>