<?xml version="1.0" encoding="UTF-8"?>
<svg width="500" height="500" xmlns="http://www.w3.org/2000/svg">
  <path d="M 272 95  L 273 95  L 272 95  L 271 95  L 269 95  L 268 95  L 267 95  L 264 95  L 262 95  L 261 95  L 260 95  L 259 95  L 258 95  L 257 95  L 255 95  L 253 95  L 251 95  L 249 95  L 245 95  L 243 95  L 240 95  L 239 95  L 238 95  L 235 95  L 234 95  L 232 95  L 230 95  L 228 95  L 226 95  L 224 95  L 223 95  L 221 95  L 218 95  L 217 95  L 216 95  L 214 95  L 211 95  L 210 95  L 209 95  L 207 95  L 206 95  L 204 95  L 203 95  L 202 95  L 199 95  L 197 95  L 196 95  L 195 95  L 193 95  L 190 96  L 189 96  L 189 97  L 188 97  L 187 97  L 184 97  L 182 97  L 181 97  L 179 97  L 178 97  L 177 97  L 176 97  L 174 97  L 174 99  L 174 101  L 174 102  L 174 105  L 174 107  L 174 108  L 174 110  L 174 111  L 174 112  L 174 113  L 174 115  L 175 117  L 175 119  L 176 122  L 176 124  L 177 126  L 178 130  L 178 131  L 178 132  L 178 134  L 178 135  L 178 137  L 178 139  L 179 141  L 179 143  L 179 144  L 179 145  L 179 146  L 179 147  L 179 150  L 179 152  L 179 153  L 179 154  L 179 158  L 179 161  L 181 166  L 181 169  L 181 172  L 181 175  L 181 177  L 181 179  L 181 181  L 181 182  L 181 180  L 181 179  L 181 178  L 181 177  L 182 177  L 184 177  L 186 177  L 189 177  L 190 177  L 192 177  L 194 177  L 197 177  L 199 177  L 200 177  L 202 177  L 203 177  L 206 177  L 207 177  L 208 177  L 211 177  L 213 177  L 214 177  L 217 177  L 219 177  L 220 177  L 221 177  L 222 177  L 224 177  L 225 177  L 226 177  L 228 177  L 229 177  L 233 177  L 234 177  L 235 177  L 237 177  L 238 177  L 240 177  L 243 179  L 245 180  L 246 181  L 248 181  L 249 181  L 249 182  L 250 182  L 251 183  L 252 183  L 252 184  L 253 186  L 256 189  L 257 191  L 258 192  L 258 193  L 259 194  L 259 196  L 259 198  L 259 199  L 260 202  L 260 203  L 260 205  L 260 206  L 260 207  L 260 209  L 260 211  L 260 212  L 260 214  L 260 217  L 260 220  L 260 224  L 260 225  L 260 227  L 260 230  L 260 232  L 260 234  L 260 235  L 260 237  L 260 239  L 260 241  L 260 243  L 260 245  L 260 246  L 259 247  L 259 248  L 259 250  L 259 251  L 258 253  L 258 254  L 258 256  L 257 258  L 257 260  L 256 262  L 254 265  L 254 266  L 253 266  L 253 267  L 252 268  L 252 270  L 251 271  L 249 273  L 248 273  L 246 274  L 245 274  L 242 275  L 238 277  L 236 278  L 232 280  L 230 280  L 229 280  L 228 280  L 227 280  L 224 281  L 224 282  L 223 282  L 222 283  L 221 283  L 219 283  L 217 283  L 215 283  L 213 283  L 212 283  L 209 283  L 207 283  L 206 283  L 205 283  L 204 283  L 203 283  L 202 283  L 200 283  L 199 283  L 197 283  L 195 283  L 193 283  L 191 283  L 189 283  L 188 283  L 186 283  L 184 283  L 183 283  L 180 283  L 179 283  L 178 283  L 177 283  L 175 283  L 175 282  L 173 282  L 172 282  L 170 282  L 168 281  L 167 280  L 165 279  L 164 279  L 162 279  L 161 279  L 159 278  L 158 278  L 155 277  L 152 276  L 150 274  L 149 273  L 148 272  L 147 271  L 146 271  L 145 270  L 143 270  L 143 269  L 142 267  L 141 266  L 140 265  L 140 263  L 139 262  L 138 262  L 137 260  L 136 259  L 136 260 " fill="none" stroke="#271897" stroke-width="2"/>
</svg>