<?xml version="1.0" encoding="UTF-8"?>
<svg width="500" height="500" xmlns="http://www.w3.org/2000/svg">
  <path d="M 251 101 L 249 101 L 247 101 L 245 101 L 244 103 L 241 105 L 237 108 L 233 111 L 229 115 L 227 116 L 225 117 L 224 119 L 224 120 L 221 121 L 220 123 L 219 125 L 216 128 L 215 131 L 209 139 L 208 141 L 204 145 L 201 152 L 197 157 L 197 159 L 196 164 L 195 165 L 188 171 L 187 176 L 184 180 L 184 184 L 181 191 L 181 195 L 180 201 L 177 209 L 177 213 L 176 219 L 176 221 L 176 225 L 176 228 L 176 236 L 176 240 L 176 243 L 176 251 L 177 253 L 180 259 L 180 260 L 183 263 L 187 267 L 192 275 L 193 277 L 197 280 L 199 281 L 200 281 L 201 283 L 207 287 L 209 288 L 213 291 L 216 292 L 221 295 L 224 296 L 227 297 L 228 299 L 231 300 L 232 301 L 235 301 L 237 303 L 239 304 L 241 304 L 243 304 L 244 305 L 245 305 L 248 305 L 252 305 L 256 305 L 259 305 L 260 305 L 263 305 L 267 305 L 269 304 L 272 301 L 275 299 L 276 297 L 279 293 L 281 291 L 284 291 L 285 289 L 285 288 L 287 284 L 289 281 L 292 277 L 293 275 L 295 272 L 296 268 L 297 265 L 297 264 L 297 263 L 299 260 L 299 257 L 299 255 L 299 252 L 299 249 L 299 247 L 299 243 L 297 241 L 296 239 L 295 236 L 293 235 L 292 232 L 291 231 L 289 228 L 287 227 L 284 225 L 279 224 L 275 224 L 269 221 L 265 219 L 263 217 L 257 215 L 252 212 L 244 211 L 240 211 L 233 211 L 224 209 L 216 209 L 205 209 L 201 208 L 199 208 L 197 207 L 195 207 L 192 205 L 189 205 L 188 205 L 187 207 L 185 208" fill="none" stroke="#271897" stroke-width="2"/>
</svg>