<?xml version="1.0" encoding="UTF-8"?>
<svg width="500" height="500" xmlns="http://www.w3.org/2000/svg">
  <path d="M 176 125 L 173 125 L 176 125 L 180 125 L 195 123 L 204 121 L 208 119 L 212 119 L 215 119 L 220 119 L 227 119 L 235 120 L 245 120 L 253 120 L 280 121 L 304 121 L 312 121 L 316 121 L 320 121 L 321 121 L 319 129 L 317 135 L 313 145 L 304 160 L 297 173 L 293 188 L 291 205 L 287 219 L 284 233 L 280 251 L 279 256 L 277 263 L 277 267 L 276 272 L 276 273 L 273 284 L 271 309 L 267 340 L 264 364" fill="none" stroke="#271897" stroke-width="2"/><path d="M 223 252 L 220 251 L 220 249 L 224 249 L 228 249 L 236 249 L 239 249 L 243 249 L 245 249 L 247 249 L 255 249 L 263 249 L 272 249 L 276 251 L 280 252 L 281 252 L 283 252 L 285 252 L 288 252 L 295 253 L 297 253 L 300 253 L 303 253 L 304 255 L 305 255" fill="none" stroke="#271897" stroke-width="2"/>
</svg>