<?xml version="1.0" encoding="UTF-8"?>
<svg width="500" height="500" xmlns="http://www.w3.org/2000/svg">
  <path d="M 253 105  L 252 105  L 250 105  L 248 105  L 245 105  L 241 105  L 239 105  L 236 104  L 234 104  L 232 104  L 231 104  L 230 104  L 228 104  L 227 104  L 226 104  L 224 104  L 222 104  L 218 104  L 214 104  L 212 104  L 208 104  L 205 104  L 203 104  L 201 104  L 200 104  L 198 104  L 194 104  L 193 104  L 191 104  L 190 104  L 188 104  L 187 104  L 185 104  L 184 104  L 182 104  L 180 106  L 179 107  L 177 110  L 176 111  L 175 113  L 175 114  L 174 115  L 173 116  L 173 117  L 173 118  L 172 120  L 171 123  L 171 125  L 168 128  L 167 130  L 166 132  L 166 133  L 166 134  L 166 138  L 166 140  L 166 143  L 167 145  L 167 147  L 167 150  L 167 152  L 168 154  L 168 155  L 169 157  L 169 159  L 170 159  L 170 160  L 171 162  L 171 165  L 172 167  L 172 168  L 173 170  L 173 172  L 173 175  L 174 177  L 176 180  L 176 182  L 177 183  L 177 185  L 177 186  L 177 187  L 178 189  L 179 191  L 180 193  L 181 196  L 182 196  L 183 198  L 184 200  L 185 201  L 189 204  L 191 206  L 193 209  L 195 210  L 199 212  L 202 214  L 206 217  L 210 219  L 211 220  L 213 220  L 215 221  L 216 222  L 217 223  L 218 225  L 220 226  L 222 229  L 225 231  L 227 233  L 229 234  L 233 239  L 235 242  L 236 244  L 237 245  L 238 246  L 239 247  L 243 252  L 246 256  L 248 258  L 249 260  L 251 264  L 252 267  L 253 269  L 254 271  L 256 276  L 256 280  L 257 282  L 259 284  L 261 288  L 262 291  L 263 293  L 263 296  L 264 302  L 265 306  L 266 313  L 267 317  L 267 320  L 267 324  L 267 327  L 267 331  L 267 339  L 267 347  L 267 355  L 267 360  L 267 365  L 267 368  L 267 373  L 259 387  L 253 394  L 251 396  L 250 398  L 249 399  L 248 400  L 248 401  L 241 402  L 232 403  L 218 404  L 215 404  L 213 404  L 210 404  L 206 404  L 201 404  L 198 404  L 187 403  L 185 402  L 183 400  L 180 399  L 173 395  L 168 391  L 167 390  L 164 387  L 161 384  L 156 378  L 154 376  L 147 368  L 144 363  L 142 359  L 140 355  L 139 351  L 135 347  L 133 343  L 132 340  L 130 336  L 129 333  L 129 328  L 128 321  L 128 312  L 128 303  L 128 298  L 128 295  L 128 293  L 128 289  L 128 287  L 128 285  L 129 283  L 134 277  L 136 274  L 139 270  L 140 268  L 144 265  L 145 263  L 148 261  L 149 260  L 155 255  L 160 252  L 162 251  L 166 247  L 168 245  L 173 241  L 175 240  L 176 238  L 179 235  L 183 234  L 187 232  L 189 231  L 193 227  L 197 225  L 203 222  L 206 221  L 211 218  L 213 217  L 214 217  L 221 214  L 222 213  L 225 211  L 227 210  L 232 208  L 234 207  L 236 206  L 238 205  L 240 204  L 243 202  L 243 201  L 245 199  L 246 199  L 248 197  L 250 194  L 252 192  L 253 190  L 256 188  L 258 187  L 258 186  L 259 182  L 260 181  L 261 177  L 262 173  L 263 171  L 264 167  L 264 164  L 265 163  L 265 161  L 265 159  L 266 155  L 267 150  L 267 149  L 267 146  L 267 145  L 268 143  L 269 141  L 269 140  L 269 138  L 269 136  L 269 135  L 269 134  L 269 132  L 269 131  L 268 128  L 267 127  L 266 126  L 265 125  L 264 123  L 262 121  L 260 119  L 259 117  L 257 116  L 256 114  L 254 113  L 253 112  L 252 110  L 251 109  L 250 108  L 249 107  L 248 105  L 247 104  L 246 103  L 244 102  L 244 101  L 243 100  L 241 100  L 240 100 " fill="none" stroke="#271897" stroke-width="2"/>
</svg>