<?xml version="1.0" encoding="UTF-8"?>
<svg width="500" height="500" xmlns="http://www.w3.org/2000/svg">
  <path d="M 271 129 L 269 124 L 268 121 L 265 120 L 261 120 L 256 120 L 251 120 L 248 120 L 245 120 L 243 120 L 241 120 L 240 120 L 239 120 L 235 120 L 232 121 L 232 123 L 229 124 L 228 125 L 225 127 L 221 131 L 219 133 L 216 135 L 215 136 L 213 139 L 212 140 L 211 141 L 211 144 L 211 145 L 211 147 L 209 149 L 209 151 L 209 153 L 209 156 L 208 159 L 208 163 L 208 165 L 208 168 L 208 171 L 208 172 L 208 175 L 208 176 L 208 177 L 208 179 L 208 184 L 208 188 L 208 189 L 208 193 L 208 197 L 208 200 L 209 203 L 211 205 L 211 208 L 215 213 L 216 216 L 219 219 L 220 224 L 220 225 L 223 228 L 225 231 L 229 233 L 231 235 L 233 236 L 235 239 L 237 240 L 239 241 L 241 243 L 244 244 L 247 245 L 248 245 L 251 247 L 252 247 L 253 247 L 255 247 L 256 248 L 257 248 L 259 248 L 260 248 L 261 248 L 264 247 L 265 243 L 265 241 L 267 241 L 268 240 L 269 240 L 271 239 L 271 237 L 272 236 L 272 235 L 272 231 L 272 229 L 272 227 L 273 224 L 273 223 L 275 220 L 275 217 L 275 215 L 275 212 L 275 209 L 275 207 L 275 204 L 275 201 L 275 199 L 275 197 L 275 196 L 275 195 L 275 193 L 275 189 L 275 185 L 275 184 L 275 181 L 275 179 L 276 176 L 276 175 L 277 172 L 277 169 L 277 167 L 277 164 L 277 161 L 277 160 L 277 157 L 277 155 L 277 152 L 277 149 L 277 147 L 277 143 L 277 137 L 277 133 L 277 129 L 277 127 L 277 125 L 277 124 L 277 123 L 277 121" fill="none" stroke="#271897" stroke-width="2"/><path d="M 275 214 L 275 213 L 275 212 L 275 213 L 275 215 L 275 217 L 275 219 L 275 221 L 275 223 L 275 225 L 275 227 L 275 229 L 275 231 L 275 233 L 275 235 L 275 237 L 275 243 L 275 245 L 276 247 L 276 249 L 276 251 L 277 253 L 279 257 L 280 259 L 280 260 L 280 263 L 280 264 L 280 267 L 280 268 L 280 269 L 281 275 L 281 280 L 281 285 L 281 288 L 281 289 L 281 291 L 281 293 L 281 296 L 281 301 L 281 304 L 281 307 L 281 308 L 281 319 L 281 333 L 281 343 L 281 345 L 281 347 L 280 349 L 280 351 L 280 353 L 280 357 L 280 360 L 280 361 L 280 364 L 279 365" fill="none" stroke="#271897" stroke-width="2"/>
</svg>