<?xml version="1.0" encoding="UTF-8"?>
<svg width="500" height="500" xmlns="http://www.w3.org/2000/svg">
  <path d="M 251 229 L 251 229 L 253 228 L 256 228 L 260 228 L 263 228 L 265 228 L 268 228 L 271 228 L 275 228 L 277 228 L 280 229 L 283 231 L 285 235 L 288 236 L 289 236 L 292 237 L 292 239 L 292 240 L 293 243 L 293 244 L 293 245 L 295 245 L 296 248 L 297 252 L 299 253 L 303 259 L 305 260 L 308 265 L 309 268 L 311 271 L 312 273 L 315 279 L 316 281 L 317 284 L 319 285 L 320 291 L 321 296 L 323 299 L 324 301 L 325 303 L 327 305 L 327 307 L 324 308 L 321 309 L 319 309 L 313 309 L 309 309 L 305 309 L 303 309 L 300 308 L 291 305 L 287 303 L 281 301 L 279 297 L 275 293 L 265 287 L 259 284 L 256 284 L 256 285 L 256 288 L 256 289 L 256 292 L 256 293 L 256 296 L 256 299 L 256 301 L 256 304 L 256 307 L 256 309 L 256 311 L 256 313 L 256 315 L 256 319 L 256 321 L 256 324 L 256 325 L 256 328 L 256 332 L 256 335 L 256 337 L 256 341 L 256 343 L 256 345 L 256 347 L 256 349 L 256 352 L 255 356 L 255 359 L 252 364 L 249 371 L 248 371 L 247 371 L 245 372 L 244 372 L 241 372 L 236 371 L 231 365 L 227 364 L 225 364 L 223 364 L 219 363 L 213 361 L 211 360 L 208 359 L 205 357 L 204 356 L 203 353 L 203 351 L 201 348 L 200 345 L 196 340 L 195 336 L 193 333 L 191 329 L 189 327 L 188 325 L 188 323 L 185 316 L 184 313 L 183 311 L 183 308 L 181 305 L 180 299 L 177 296 L 175 287 L 175 284 L 172 281 L 171 279 L 169 276 L 168 273 L 167 272 L 164 269 L 163 267 L 159 260 L 153 255 L 149 247 L 145 241 L 144 239 L 143 237 L 140 235 L 140 232 L 139 231 L 139 229 L 137 227 L 136 220 L 135 217 L 135 216 L 133 215 L 133 212 L 133 209 L 133 208 L 133 207 L 133 205 L 133 203 L 133 200 L 133 199 L 133 196 L 136 192 L 137 188 L 139 188 L 140 188 L 141 187 L 144 187 L 145 184 L 149 177 L 151 175 L 152 171 L 153 168 L 155 163 L 156 160 L 156 159 L 157 157 L 157 155 L 159 153 L 159 152 L 159 149 L 159 145 L 159 143 L 161 136 L 163 136 L 169 133 L 173 131 L 179 128 L 181 128 L 187 128 L 193 128 L 196 127 L 199 127 L 203 127 L 207 125 L 209 124 L 211 124 L 212 123 L 215 123 L 217 121 L 219 120 L 223 119 L 225 117 L 227 116 L 229 115 L 231 113 L 233 109 L 235 107 L 236 104 L 237 101 L 239 100 L 240 99 L 240 96 L 241 95 L 241 93 L 243 91 L 244 88 L 245 85 L 248 83 L 251 80 L 253 77 L 257 75 L 261 73 L 264 72 L 267 72 L 269 72 L 272 72 L 275 71 L 281 71 L 284 71 L 284 69 L 287 69 L 288 68 L 289 68 L 291 68 L 295 68 L 296 67 L 299 67 L 300 65 L 303 65 L 304 65 L 305 64 L 309 63 L 311 61 L 313 61 L 315 60 L 317 60 L 320 60 L 321 60 L 323 60 L 324 60 L 328 60 L 329 60 L 332 60 L 333 60 L 337 60 L 341 60 L 345 60 L 348 61 L 352 65 L 355 67 L 357 68 L 360 71 L 361 72 L 363 75 L 364 76 L 365 77 L 365 79 L 368 80 L 369 83 L 369 85 L 369 88 L 368 91 L 363 99 L 349 107 L 335 112 L 332 115 L 328 117 L 327 119 L 325 121 L 324 123 L 324 124 L 324 125 L 324 127 L 324 129 L 324 132 L 324 135 L 324 137 L 324 140 L 323 145 L 321 148 L 321 149 L 321 151 L 320 156 L 319 159 L 319 163 L 319 168 L 317 177 L 316 184 L 316 185 L 316 189 L 316 192 L 316 195 L 315 196 L 313 197 L 312 200 L 309 201 L 305 203 L 304 203 L 303 204 L 301 205 L 299 207 L 297 207 L 296 207 L 295 208 L 292 208 L 289 208 L 285 208 L 283 208 L 280 208 L 279 208 L 276 208 L 272 208 L 269 208 L 265 208 L 263 208 L 261 207 L 260 207 L 257 203 L 256 201 L 256 200 L 255 199 L 253 197" fill="none" stroke="#271897" stroke-width="2"/>
  <!-- Add markers or other elements here if needed -->
</svg>