<?xml version="1.0" encoding="UTF-8"?>
<svg width="500" height="500" xmlns="http://www.w3.org/2000/svg">
  <path d="M 174 157 L 175 156 L 176 156 L 177 159 L 179 163 L 179 167 L 179 168 L 180 172 L 181 183 L 183 187 L 184 196 L 184 200 L 187 213 L 188 221 L 188 227 L 189 231 L 191 233 L 192 247 L 193 261 L 192 267 L 191 279 L 191 295 L 188 309 L 187 319 L 187 321 L 185 328 L 185 336 L 185 343 L 185 348 L 185 352 L 185 355 L 185 356 L 189 359 L 193 359 L 201 359 L 203 359 L 205 359 L 207 359 L 208 359 L 209 359 L 212 359 L 215 359 L 217 357 L 219 356 L 219 355 L 220 352 L 220 351 L 221 351 L 224 347 L 227 340 L 228 339 L 231 333 L 231 329 L 232 327 L 233 319 L 235 312 L 235 308 L 236 304 L 236 301 L 237 299 L 237 296 L 239 293 L 239 288 L 239 283 L 239 280 L 239 279 L 239 271 L 239 267 L 239 264 L 239 261 L 239 260 L 239 257 L 239 256 L 239 253 L 239 251 L 240 248 L 244 244 L 245 244 L 247 244 L 249 244 L 251 244 L 253 244 L 255 244 L 256 244 L 259 244 L 261 244 L 263 244 L 265 245 L 267 249 L 268 251 L 269 252 L 271 253 L 272 256 L 273 259 L 275 261 L 276 267 L 277 269 L 279 276 L 280 281 L 280 285 L 280 292 L 280 297 L 280 304 L 280 311 L 280 313 L 280 319 L 280 321 L 280 324 L 280 327 L 280 329 L 280 333 L 280 336 L 280 340 L 280 343 L 280 347 L 280 352 L 280 355 L 280 357 L 281 360 L 283 363 L 285 368 L 288 372 L 289 375 L 289 377 L 291 380 L 292 381 L 295 384 L 297 387 L 300 389 L 303 392 L 307 393 L 309 395 L 311 395 L 312 395 L 316 393 L 319 392 L 321 389 L 325 388 L 328 387 L 329 385 L 332 384 L 335 383 L 336 381 L 337 379 L 337 376 L 339 371 L 339 369 L 340 368 L 341 367 L 344 363 L 345 361 L 345 359 L 348 356 L 349 352 L 351 349 L 351 348 L 352 343 L 352 340 L 352 337 L 352 332 L 352 329 L 352 327 L 352 324 L 352 321 L 352 312 L 352 309 L 352 307 L 352 304 L 352 301 L 352 297 L 352 295 L 352 292 L 351 284 L 351 283 L 351 281 L 349 279 L 348 276 L 348 273 L 347 271 L 347 268 L 347 263 L 347 260 L 347 257 L 347 255 L 345 247 L 345 244 L 344 241 L 344 239 L 344 236 L 343 233 L 341 231 L 340 228 L 339 225 L 337 221 L 337 220 L 337 217 L 337 215 L 339 212 L 340 209 L 341 205 L 341 204 L 341 201 L 341 200 L 341 199 L 343 197 L 344 193 L 344 192 L 345 189 L 345 188 L 347 187 L 349 187 L 351 187 L 352 187 L 353 187 L 361 187 L 365 187 L 371 187 L 372 187 L 375 187 L 377 187 L 380 187 L 383 187 L 384 187 L 385 185 L 388 177 L 389 165 L 392 153 L 393 149 L 393 147 L 393 145 L 393 143 L 393 141 L 392 140 L 389 139 L 388 137 L 384 137 L 380 137 L 379 137 L 376 136 L 375 136 L 371 136 L 364 135 L 361 135 L 357 135 L 356 135 L 351 135 L 345 135 L 341 135 L 339 135 L 337 135 L 332 135 L 331 135 L 328 135 L 327 135 L 323 135 L 317 133 L 315 132 L 313 132 L 311 132 L 309 132 L 307 132 L 305 132 L 303 132 L 301 132 L 300 132 L 297 132 L 293 132 L 291 132 L 289 132 L 285 132 L 284 132 L 283 132 L 279 132 L 276 131 L 275 129 L 273 129 L 272 128 L 271 127 L 269 127 L 268 125 L 268 124 L 268 123 L 267 121 L 265 120 L 265 119 L 264 116 L 264 113 L 263 111 L 261 108 L 259 107 L 253 107 L 249 105 L 245 105 L 243 105 L 240 105 L 235 105 L 229 105 L 224 105 L 221 105 L 219 105 L 217 105 L 215 105 L 213 105 L 211 105 L 208 104" fill="none" stroke="#271897" stroke-width="2"/>
  <!-- Add markers or other elements here if needed -->
</svg>