<?xml version="1.0" encoding="UTF-8"?>
<svg width="500" height="500" xmlns="http://www.w3.org/2000/svg">
  <path d="M 186 104 L 187 104 L 187 103 L 183 103 L 176 103 L 168 103 L 163 103 L 157 103 L 152 103 L 149 103 L 148 103 L 145 103 L 143 103 L 141 103 L 139 103 L 137 103 L 136 103 L 135 104 L 135 105 L 135 108 L 133 111 L 133 115 L 133 117 L 133 121 L 133 125 L 133 127 L 133 139 L 133 145 L 133 149 L 133 159 L 133 175 L 133 179 L 133 184 L 133 187 L 133 192 L 133 195 L 133 197 L 133 201 L 135 204 L 135 208 L 136 211 L 139 216 L 140 225 L 140 228 L 141 236 L 141 239 L 141 240 L 141 245 L 143 251 L 144 253 L 144 256 L 144 259 L 144 261 L 144 263 L 144 265 L 144 268 L 144 269 L 147 283 L 147 293 L 147 304 L 147 311 L 147 312 L 147 313 L 147 315 L 147 316 L 147 319 L 147 320 L 147 323 L 147 325 L 147 327 L 148 329 L 148 339 L 148 345 L 148 349 L 148 351 L 148 352 L 151 353 L 155 356 L 157 357 L 164 360 L 168 360 L 172 360 L 175 360 L 180 360 L 184 360 L 187 361 L 189 361 L 191 361 L 193 361 L 199 361 L 201 361 L 209 361 L 213 361 L 215 361 L 217 361 L 220 361 L 221 361 L 223 361 L 225 361 L 231 361 L 236 361 L 240 361 L 249 365 L 255 371 L 257 375 L 259 375 L 261 376 L 264 380 L 264 381 L 265 385 L 267 385 L 268 388 L 271 391 L 275 395 L 277 399 L 281 408 L 283 417 L 285 428 L 288 431 L 289 433 L 291 436 L 292 437 L 293 439 L 293 441 L 293 443 L 293 445 L 293 448 L 293 451 L 293 456 L 293 459 L 293 461 L 291 464 L 291 467 L 291 468 L 291 471 L 291 472 L 291 473 L 291 475 L 291 476 L 291 477 L 292 479 L 293 480 L 296 481 L 297 481 L 299 483 L 300 483 L 303 483 L 307 483 L 309 483 L 312 483 L 315 483 L 316 483 L 319 483 L 321 483 L 324 483 L 327 483 L 331 481 L 331 480 L 332 480 L 335 479 L 336 477 L 337 475 L 339 472 L 339 469 L 340 468 L 341 467 L 343 464 L 344 461 L 344 459 L 341 451 L 339 448 L 335 443 L 331 437 L 329 435 L 327 429 L 324 427 L 323 425 L 321 423 L 320 421 L 317 419 L 316 416 L 315 413 L 312 411 L 311 409 L 309 408 L 305 401 L 304 396 L 300 392 L 300 389 L 299 387 L 293 381 L 292 379 L 289 376 L 288 373 L 285 369 L 283 367 L 281 364 L 281 363 L 281 361 L 281 359 L 281 357 L 280 353 L 279 347 L 277 343 L 276 340 L 275 332 L 273 329 L 271 325 L 271 323 L 269 320 L 269 317 L 269 316 L 269 315 L 269 311 L 269 309 L 269 307 L 272 304 L 275 300 L 276 297 L 280 295 L 283 293 L 283 292 L 284 289 L 285 288 L 287 287 L 291 287 L 295 287 L 296 287 L 300 287 L 305 285 L 312 285 L 313 285 L 316 285 L 319 285 L 320 285 L 321 285 L 324 285 L 327 285 L 328 285 L 331 285 L 333 284 L 335 284 L 343 281 L 345 280 L 345 277 L 347 277 L 347 275 L 347 264 L 347 252 L 345 244 L 345 241 L 345 240 L 345 237 L 345 235 L 344 229 L 344 228 L 339 217 L 336 212 L 335 209 L 333 208 L 333 205 L 332 203 L 332 199 L 331 196 L 329 193 L 327 189 L 327 187 L 327 185 L 325 183 L 325 180 L 325 176 L 324 173 L 323 168 L 321 165 L 321 164 L 320 161 L 320 157 L 320 155 L 320 152 L 320 151 L 320 147 L 320 143 L 320 133 L 320 128 L 320 116 L 320 113 L 320 111 L 320 104 L 320 99 L 320 93 L 320 89 L 320 85 L 320 81 L 320 80 L 319 79 L 319 77 L 317 76 L 316 76 L 315 76 L 311 76 L 308 76 L 304 76 L 301 76 L 299 76 L 296 76 L 291 76 L 287 76 L 283 76 L 273 75 L 263 75 L 256 75 L 251 73 L 248 73 L 243 72 L 241 72 L 240 72 L 239 72 L 237 72 L 236 72 L 233 72 L 231 72" fill="none" stroke="#271897" stroke-width="2"/>
  <!-- Add markers or other elements here if needed -->
</svg>