<?xml version="1.0" encoding="UTF-8"?>
<svg width="500" height="500" xmlns="http://www.w3.org/2000/svg">
  <path d="M 227 172 L 227 172 L 229 172 L 235 171 L 237 169 L 249 167 L 253 165 L 255 165 L 256 165 L 259 164 L 261 163 L 272 160 L 276 157 L 279 157 L 283 157 L 291 153 L 299 152 L 301 149 L 301 148 L 303 145 L 303 141 L 303 139 L 303 136 L 303 135 L 303 132 L 303 127 L 303 124 L 303 123 L 303 120 L 303 117 L 303 112 L 303 109 L 303 107 L 303 104 L 303 103 L 303 100 L 303 99 L 303 97 L 301 95 L 301 84 L 301 80 L 301 73 L 300 71 L 300 69 L 300 68 L 299 67 L 299 65 L 297 65 L 296 65 L 293 65 L 292 65 L 289 65 L 287 65 L 284 65 L 281 65 L 280 65 L 276 65 L 273 65 L 272 65 L 269 65 L 267 65 L 265 65 L 264 65 L 259 67 L 253 68 L 251 69 L 248 69 L 245 71 L 243 71 L 237 72 L 235 73 L 232 73 L 232 75 L 227 76 L 223 77 L 216 79 L 211 79 L 208 80 L 205 80 L 200 80 L 200 81 L 197 81 L 196 83 L 195 83 L 191 83 L 189 83 L 187 83 L 185 84 L 183 84 L 181 84 L 180 84 L 177 84 L 176 85 L 175 85 L 175 88 L 175 92 L 175 97 L 175 100 L 175 104 L 175 109 L 176 120 L 177 128 L 179 131 L 179 133 L 179 139 L 179 140 L 180 141 L 181 144 L 183 147 L 185 152 L 187 155 L 187 157 L 187 160 L 188 163 L 188 164 L 187 167 L 187 168 L 184 171 L 180 173 L 177 175 L 175 177 L 173 179 L 167 187 L 159 200 L 156 205 L 153 211 L 149 216 L 148 217 L 147 220 L 145 221 L 145 223 L 144 224 L 141 229 L 140 232 L 140 235 L 139 237 L 139 240 L 139 243 L 139 244 L 139 248 L 139 249 L 139 259 L 139 263 L 140 273 L 143 277 L 143 284 L 144 288 L 145 289 L 147 292 L 148 293 L 149 295 L 152 297 L 153 299 L 155 301 L 156 304 L 157 305 L 157 308 L 160 308 L 161 309 L 165 311 L 167 311 L 168 312 L 168 313 L 172 316 L 176 317 L 179 319 L 181 323 L 184 324 L 185 327 L 188 328 L 189 331 L 192 335 L 193 337 L 193 339 L 195 341 L 195 343 L 195 345 L 196 351 L 196 353 L 196 356 L 197 357 L 197 359 L 197 360 L 197 361 L 197 364 L 197 365 L 199 372 L 200 384 L 200 395 L 200 401 L 200 404 L 200 405 L 201 405 L 203 404 L 204 404 L 205 403 L 207 401 L 208 400 L 209 399 L 211 399 L 212 397 L 213 396 L 213 395 L 216 391 L 217 389 L 219 388 L 219 387 L 220 385 L 220 384 L 220 383 L 220 380 L 221 380 L 223 379 L 223 377 L 224 376 L 224 375 L 224 373 L 224 372 L 224 368 L 224 365 L 224 364 L 225 363 L 228 360 L 229 356 L 229 355 L 231 351 L 232 351 L 233 348 L 235 345 L 235 344 L 235 341 L 235 340 L 237 337 L 239 337 L 241 337 L 244 337 L 249 339 L 252 340 L 255 341 L 256 343 L 256 344 L 257 345 L 259 347 L 261 348 L 264 349 L 265 351 L 268 352 L 271 352 L 276 353 L 277 353 L 281 355 L 283 355 L 285 355 L 288 355 L 291 355 L 293 355 L 296 355 L 297 355 L 299 355 L 303 355 L 305 355 L 308 355 L 315 352 L 316 352 L 317 349 L 319 348 L 320 345 L 320 344 L 321 341 L 321 339 L 323 336 L 324 331 L 325 327 L 325 324 L 325 321 L 325 319 L 325 316 L 325 313 L 325 311 L 325 305 L 325 304 L 323 296 L 321 289 L 320 284 L 319 279 L 317 276 L 317 273 L 317 272 L 317 271 L 317 263 L 317 260 L 317 259 L 317 257 L 317 255 L 317 251 L 317 248 L 317 247 L 316 245 L 316 240 L 316 239 L 316 237 L 316 235 L 315 229 L 315 227 L 313 219 L 312 216 L 309 216 L 307 216 L 304 216 L 297 216 L 295 216 L 288 216 L 284 216 L 279 215 L 273 215 L 271 215 L 268 215 L 264 215 L 261 215 L 256 215 L 255 215 L 251 215 L 249 215 L 247 215 L 245 215 L 244 215 L 241 215 L 240 215 L 237 215 L 233 215 L 232 215 L 229 215 L 228 215 L 227 215 L 225 215 L 224 215 L 220 207 L 219 196 L 217 193 L 216 184" fill="none" stroke="#271897" stroke-width="2"/>
  <!-- Add markers or other elements here if needed -->
</svg>