<?xml version="1.0" encoding="UTF-8"?>
<svg width="500" height="500" xmlns="http://www.w3.org/2000/svg">
  <path d="M 190 58 L 189 57 L 191 56 L 192 56 L 193 56 L 193 57 L 193 59 L 193 60 L 193 61 L 193 63 L 193 68 L 195 71 L 195 72 L 195 75 L 195 77 L 195 80 L 196 84 L 196 85 L 196 88 L 196 89 L 196 93 L 196 99 L 196 101 L 196 104 L 196 105 L 196 107 L 196 108 L 196 109 L 192 112 L 189 112 L 187 112 L 184 112 L 181 112 L 177 112 L 176 112 L 175 112 L 173 112 L 172 112 L 171 112 L 171 113 L 171 116 L 171 119 L 172 121 L 173 124 L 175 127 L 175 129 L 176 133 L 176 136 L 176 137 L 177 139 L 177 140 L 177 143 L 177 144 L 177 147 L 177 148 L 179 149 L 180 149 L 180 151 L 181 151 L 183 151 L 185 151 L 187 151 L 189 151 L 191 152 L 192 153 L 195 155 L 196 155 L 199 156 L 200 156 L 200 157 L 200 159 L 201 161 L 203 164 L 203 167 L 203 169 L 204 172 L 204 173 L 204 176 L 204 177 L 204 179 L 204 180 L 205 181 L 205 184 L 207 185 L 207 188 L 207 189 L 207 191 L 207 192 L 207 193 L 207 196 L 205 203 L 203 209 L 201 215 L 200 219 L 197 223 L 195 228 L 195 229 L 193 231 L 193 232 L 192 235 L 191 236 L 191 237 L 191 239 L 191 241 L 191 243 L 192 245 L 193 247 L 196 248 L 197 248 L 199 248 L 203 249 L 205 249 L 205 251 L 207 252 L 208 253 L 209 255 L 212 256 L 213 259 L 215 261 L 217 263 L 219 265 L 221 267 L 225 272 L 229 277 L 231 279 L 232 281 L 233 283 L 235 284 L 236 287 L 236 289 L 236 292 L 236 295 L 236 296 L 236 299 L 236 305 L 236 308 L 236 311 L 236 312 L 236 313 L 236 315 L 236 317 L 235 319 L 233 321 L 232 324 L 232 325 L 229 328 L 228 329 L 227 332 L 225 335 L 221 340 L 219 343 L 216 345 L 213 348 L 211 351 L 208 353 L 204 356 L 203 357 L 200 360 L 193 364 L 187 368 L 185 368 L 183 369 L 183 371 L 181 372 L 176 375 L 171 377 L 167 379 L 164 380 L 163 380 L 161 383 L 160 385 L 160 388 L 161 389 L 164 391 L 167 392 L 169 393 L 171 395 L 173 396 L 177 399 L 180 403 L 181 405 L 185 409 L 191 411 L 193 412 L 195 413 L 197 413 L 199 413 L 201 415 L 203 415 L 204 415 L 205 415 L 207 415 L 209 416 L 211 416 L 213 416 L 215 416 L 216 416 L 220 417 L 221 417 L 223 417 L 225 417 L 227 417 L 229 417 L 233 417 L 236 417 L 239 417 L 241 417 L 243 417 L 244 417 L 245 417 L 248 417 L 251 416 L 253 416 L 256 416 L 259 416 L 260 416 L 261 416 L 264 416 L 265 416 L 269 416 L 269 415 L 272 415 L 275 415 L 277 415 L 279 415 L 280 415 L 281 413 L 283 413 L 284 413 L 287 412 L 288 412 L 289 411 L 291 411 L 292 411 L 295 411 L 296 409 L 297 409 L 297 408 L 299 407 L 300 405 L 300 404 L 301 403 L 303 403 L 304 403 L 305 400 L 305 399 L 307 396 L 307 395 L 307 393 L 307 392 L 307 391 L 307 389 L 307 383 L 307 381 L 307 380 L 307 376 L 308 365 L 308 360 L 308 359 L 308 355 L 308 352 L 308 349 L 308 348 L 308 345 L 308 343 L 308 340 L 307 339 L 305 336 L 304 335 L 303 331 L 303 328 L 303 327 L 303 325 L 303 324 L 300 321 L 300 319 L 300 317 L 300 313 L 300 312 L 299 309 L 299 308 L 299 307 L 299 305 L 299 304 L 299 301 L 297 299 L 295 296 L 291 293 L 287 291 L 285 288 L 283 285 L 281 284 L 280 281 L 279 280 L 277 279 L 273 275 L 272 272 L 272 271 L 271 269 L 271 268 L 271 264 L 271 261 L 271 260 L 271 257 L 272 255 L 276 253 L 276 252 L 277 252 L 280 252 L 281 251 L 283 249 L 284 249 L 287 248 L 291 248 L 293 245 L 295 243 L 295 241 L 295 240 L 295 237 L 295 235 L 296 232 L 297 229 L 300 225 L 301 224 L 303 224 L 303 223 L 304 220 L 304 217 L 304 216 L 304 212 L 304 209 L 304 208 L 305 207 L 305 205 L 305 204 L 305 201 L 305 199 L 305 195 L 305 192 L 305 189 L 305 188 L 305 187 L 304 187 L 301 187 L 300 187 L 297 187 L 293 187 L 291 187 L 288 187 L 284 187 L 281 188 L 277 188 L 275 188 L 272 189 L 269 191 L 268 191 L 267 191 L 265 191 L 264 191 L 263 191 L 261 191 L 260 191 L 257 191 L 255 191 L 252 191 L 251 191 L 247 191 L 245 191 L 245 192 L 244 192 L 243 192 L 243 191 L 243 189 L 243 188 L 243 185 L 243 184 L 243 181 L 243 180 L 243 177 L 243 175 L 243 173 L 243 172 L 243 169 L 243 168 L 243 167 L 244 167 L 245 165 L 247 164 L 248 160 L 248 159 L 248 156 L 248 155 L 248 153 L 247 153 L 245 152 L 245 151 L 244 149 L 243 149 L 240 149 L 237 147 L 236 147 L 233 145 L 231 145 L 228 144 L 224 144 L 221 143 L 217 141 L 215 140 L 213 139 L 211 136 L 209 133 L 209 132 L 209 131 L 209 128 L 209 125 L 209 124 L 209 121 L 209 119 L 209 117 L 209 115 L 209 112 L 211 111 L 212 109 L 213 109 L 215 109 L 216 108 L 217 107 L 221 105 L 223 105 L 228 104 L 233 104 L 236 104 L 240 104 L 248 103 L 252 103 L 268 100 L 272 100 L 275 99 L 279 99 L 280 99 L 283 99 L 284 99 L 285 99 L 287 99 L 288 99 L 291 99 L 293 99 L 296 99 L 304 100 L 307 100 L 309 101 L 311 101 L 313 101 L 315 101 L 316 99 L 316 92 L 316 89 L 316 87 L 316 83 L 316 79 L 316 76 L 316 75 L 313 71 L 313 65 L 312 56 L 312 49 L 311 43 L 311 41 L 305 40 L 300 40 L 296 39 L 293 39 L 289 39 L 284 39 L 281 39 L 279 39 L 277 39 L 275 39 L 269 39 L 261 39 L 260 39 L 256 40 L 251 43 L 249 43 L 247 43 L 244 44 L 243 44 L 239 44 L 237 45 L 232 45 L 227 45" fill="none" stroke="#271897" stroke-width="2"/>
  <!-- Add markers or other elements here if needed -->
</svg>