<?xml version="1.0" encoding="UTF-8"?>
<svg width="500" height="500" xmlns="http://www.w3.org/2000/svg">
  <path d="M 125 329 L 125 329 L 125 327 L 125 323 L 125 320 L 125 315 L 125 311 L 125 308 L 124 301 L 123 293 L 123 287 L 121 284 L 121 283 L 121 279 L 121 271 L 121 259 L 121 240 L 123 231 L 124 223 L 127 216 L 128 211 L 128 207 L 128 197 L 129 191 L 131 187 L 132 181 L 132 179 L 132 176 L 132 171 L 132 169 L 132 164 L 132 160 L 132 157 L 132 152 L 132 149 L 133 147 L 136 141 L 136 139 L 137 139 L 140 136 L 141 133 L 145 127 L 148 123 L 149 123 L 153 116 L 156 111 L 159 109 L 163 107 L 167 101 L 169 100 L 171 99 L 173 99 L 176 97 L 177 97 L 180 97 L 183 97 L 187 97 L 189 97 L 192 97 L 195 97 L 200 97 L 203 97 L 205 97 L 208 97 L 211 97 L 212 97 L 217 103 L 219 104 L 220 105 L 221 108 L 224 111 L 228 119 L 228 121 L 232 131 L 233 136 L 236 149 L 236 153 L 237 164 L 237 171 L 239 176 L 239 185 L 240 189 L 240 196 L 240 200 L 241 205 L 241 208 L 243 216 L 243 227 L 243 233 L 243 244 L 243 251 L 243 259 L 244 265 L 244 273 L 244 277 L 244 280 L 245 288 L 245 292 L 245 295 L 247 300 L 248 316 L 249 319 L 251 324 L 252 327 L 252 328 L 252 332 L 252 333 L 252 337 L 252 339 L 252 344 L 252 347 L 252 351 L 253 357 L 253 360 L 253 363 L 253 364 L 253 368 L 253 371 L 253 373 L 253 376 L 253 379 L 253 383 L 251 388 L 249 388 L 248 389 L 247 392 L 245 393 L 244 395 L 241 396 L 241 397 L 240 397 L 239 397 L 237 399 L 235 399 L 233 400 L 231 401 L 228 403 L 225 404 L 224 405 L 219 405 L 216 405 L 212 405 L 209 405 L 207 405 L 205 405 L 203 405 L 201 405 L 199 405 L 196 405 L 193 404 L 188 400 L 181 393 L 179 391 L 179 388 L 179 387 L 177 381 L 177 379 L 176 373 L 175 369 L 172 365 L 171 353 L 171 349 L 171 345 L 171 343 L 171 341 L 171 337 L 171 335 L 171 329 L 171 325 L 171 324 L 171 321 L 171 319 L 171 315 L 171 311 L 171 309 L 171 308 L 171 307 L 171 304 L 171 300 L 171 297 L 171 296 L 171 293 L 171 292 L 171 289 L 171 285 L 171 283 L 171 280 L 171 275 L 171 271 L 171 268 L 171 267 L 171 264 L 171 263 L 171 261 L 171 259 L 172 255 L 172 253 L 172 251 L 172 248 L 172 247 L 173 241 L 173 237 L 173 235 L 173 233 L 173 231 L 173 229 L 173 228 L 173 225 L 175 223 L 176 220 L 176 217 L 176 216 L 177 213 L 177 211 L 177 209 L 179 207 L 180 205 L 180 204 L 181 203 L 184 203 L 185 203 L 188 203 L 193 201 L 196 201 L 199 201 L 200 201 L 204 201 L 205 201 L 208 201 L 211 201 L 213 200 L 215 200 L 217 200 L 221 200 L 224 200 L 228 200 L 229 200 L 232 200 L 233 200 L 236 200 L 239 200 L 240 200 L 244 200 L 247 200 L 249 200 L 252 200 L 253 200 L 255 200 L 256 200 L 257 200 L 259 200 L 260 200 L 263 203 L 264 204 L 265 207 L 267 208 L 267 212 L 267 216 L 267 219 L 267 223 L 267 224 L 267 227 L 267 229 L 267 232 L 267 235 L 268 239 L 268 243 L 268 244 L 268 247 L 268 249 L 269 255 L 271 257 L 271 259 L 272 260 L 272 264 L 272 267 L 273 268 L 273 269 L 273 271 L 275 273 L 275 277 L 276 280 L 277 283" fill="none" stroke="#271897" stroke-width="2"/>
  <!-- Add markers or other elements here if needed -->
</svg>