<?xml version="1.0" encoding="UTF-8"?>
<svg width="500" height="500" xmlns="http://www.w3.org/2000/svg">
  <path d="M 228 209 L 228 212 L 228 215 L 228 217 L 228 220 L 228 223 L 228 224 L 228 227 L 228 228 L 228 231 L 228 232 L 228 235 L 228 236 L 228 239 L 228 240 L 228 243 L 228 244 L 228 247 L 228 248 L 228 249 L 227 251 L 227 252 L 227 255 L 227 256 L 225 260 L 223 265 L 221 268 L 221 271 L 221 272 L 220 273 L 220 275 L 220 276 L 219 276 L 216 277 L 215 277 L 213 277 L 211 277 L 209 277 L 208 277 L 205 277 L 204 277 L 203 277 L 200 277 L 199 276 L 196 276 L 195 275 L 193 275 L 192 275 L 191 273 L 191 272 L 189 271 L 188 269 L 187 268 L 184 267 L 183 267 L 180 265 L 179 264 L 177 263 L 177 261 L 176 260 L 176 259 L 176 257 L 175 256 L 175 255 L 173 253 L 173 252 L 173 251 L 172 249 L 172 248 L 172 243 L 172 241 L 172 239 L 172 237 L 172 235 L 172 232 L 172 228 L 172 227 L 172 224 L 172 221 L 172 216 L 172 213 L 172 212 L 172 211 L 172 209 L 172 207 L 172 204 L 172 201 L 172 199 L 171 195 L 171 192 L 169 189 L 168 187 L 165 183 L 163 180 L 161 177 L 159 173 L 157 173 L 156 172 L 153 169 L 152 168 L 152 165 L 151 164 L 151 163 L 149 160 L 149 157 L 149 155 L 149 152 L 149 149 L 149 148 L 149 147 L 149 144 L 149 143 L 149 137 L 149 135 L 149 133 L 149 129 L 149 127 L 149 121 L 153 119 L 155 116 L 156 113 L 157 111 L 159 109 L 159 107 L 160 103 L 161 100 L 163 96 L 164 93 L 165 91 L 167 88 L 171 83 L 179 69 L 187 59 L 189 53 L 191 52 L 193 52 L 195 52 L 196 52 L 197 52 L 201 52 L 204 52 L 208 51 L 209 51 L 212 51 L 213 51 L 217 51 L 220 51 L 221 51 L 227 51 L 228 51 L 232 51 L 239 51 L 245 51 L 248 51 L 252 51 L 253 51 L 256 51 L 257 51 L 259 51 L 260 51 L 261 51 L 263 51 L 265 51 L 267 51 L 268 51 L 271 51 L 272 51 L 275 51 L 276 51 L 279 51 L 280 51 L 281 52 L 283 55 L 284 56 L 285 57 L 287 59 L 288 61 L 291 64 L 292 65 L 293 68 L 295 72 L 296 76 L 296 77 L 297 80 L 299 84 L 300 87 L 300 91 L 300 93 L 299 95 L 299 96 L 297 96 L 297 99 L 296 100 L 293 103 L 293 104 L 293 105 L 292 107 L 291 107 L 289 107 L 288 108 L 287 111 L 284 113 L 284 115 L 283 116 L 281 116 L 280 117 L 279 119 L 276 123 L 276 124 L 276 125 L 275 125 L 273 128 L 272 129 L 271 132 L 269 133 L 269 135 L 268 137 L 268 139 L 265 139 L 264 143 L 263 143 L 261 147 L 263 149 L 267 152 L 268 155 L 271 157 L 272 157 L 272 159 L 273 160 L 276 160 L 277 161 L 280 161 L 283 161 L 285 163 L 287 163 L 288 163 L 291 163 L 292 163 L 293 163 L 295 163 L 296 163 L 297 163 L 299 164 L 301 167 L 304 167 L 305 171 L 307 171 L 308 175 L 308 179 L 309 181 L 309 184 L 313 189 L 313 193 L 313 196 L 315 200 L 315 201 L 315 203 L 315 205 L 315 207 L 315 215 L 315 219 L 315 225 L 316 232 L 316 237 L 316 239 L 316 240 L 316 243 L 316 245 L 316 252 L 316 257 L 316 260 L 316 263 L 316 264 L 316 265 L 316 268 L 316 269 L 316 271 L 316 273 L 317 276 L 319 283 L 319 285 L 319 289 L 319 293 L 319 297 L 319 299 L 319 301 L 319 304 L 319 305 L 319 307 L 319 313 L 319 320 L 321 335 L 321 337 L 321 340 L 321 341 L 321 343 L 320 344 L 313 347 L 309 348 L 307 349 L 295 352 L 292 353 L 291 355 L 288 355 L 288 356 L 284 356 L 279 357 L 275 357 L 273 359 L 272 359 L 268 360 L 267 360 L 261 361 L 260 361 L 259 361 L 257 361 L 253 361 L 248 363 L 240 364 L 225 365 L 220 367 L 216 368 L 212 368 L 209 369 L 207 369 L 205 369 L 204 369 L 201 369 L 200 369 L 196 369 L 193 369 L 189 369 L 187 371 L 185 371 L 184 371 L 181 371 L 180 371 L 179 371 L 177 371 L 176 371 L 175 371 L 172 371 L 171 371 L 168 371 L 167 371 L 161 371 L 157 369 L 156 368 L 155 367 L 155 365 L 151 361 L 149 360 L 147 357 L 144 353 L 140 351 L 140 348 L 139 347 L 137 344 L 137 341 L 136 339 L 136 337 L 135 335 L 135 332 L 135 331 L 135 329 L 135 328 L 135 325 L 135 323 L 135 320 L 135 317 L 135 316 L 135 315 L 135 312 L 135 311 L 135 309 L 135 308 L 135 307 L 136 305 L 136 304 L 137 303 L 139 303 L 140 300 L 141 299 L 144 297 L 145 296 L 148 296 L 149 295 L 151 295 L 152 295 L 153 295 L 156 293 L 157 293 L 159 293 L 160 293 L 161 293 L 163 293 L 165 293 L 168 293 L 169 293 L 172 293 L 173 293 L 175 293 L 177 293 L 179 293 L 181 293 L 183 293 L 184 293 L 187 293 L 188 295 L 191 300 L 192 301 L 193 305 L 195 307 L 195 309 L 195 312 L 195 315 L 195 317 L 195 320 L 195 324 L 195 329 L 195 331 L 195 333 L 195 335 L 195 337 L 195 343 L 195 345 L 195 348 L 195 351 L 195 353 L 195 356 L 195 357 L 195 359 L 195 360 L 195 363 L 195 364 L 195 365 L 195 367 L 195 369 L 195 371 L 195 372 L 195 375 L 195 376 L 195 377 L 195 379 L 195 381 L 195 385 L 195 388 L 195 391 L 195 392 L 195 393 L 195 396 L 195 399 L 195 404 L 195 405 L 195 407 L 195 409 L 195 411 L 195 412 L 195 413 L 195 415 L 197 416 L 199 420 L 201 421 L 204 424 L 207 424 L 208 425 L 211 425 L 212 425 L 215 425 L 216 425 L 217 425 L 220 427 L 221 427 L 224 427 L 225 427 L 227 427 L 228 427 L 229 427 L 231 427 L 233 427 L 235 427 L 236 427 L 237 425 L 239 424 L 240 423 L 241 421 L 243 421 L 244 420 L 247 419 L 248 416 L 251 415 L 252 413 L 253 412 L 256 411 L 257 409 L 260 408 L 261 407 L 264 405 L 264 404 L 265 401 L 267 400 L 268 397 L 268 396 L 269 391 L 271 388 L 272 385 L 273 383 L 273 380 L 275 377 L 275 375 L 275 373 L 275 372 L 275 367 L 275 361 L 275 359 L 275 357 L 275 356 L 275 353 L 275 352 L 275 351 L 275 348 L 275 345 L 275 344 L 275 343 L 275 339 L 275 337 L 275 336 L 275 335 L 275 332 L 275 331 L 275 329 L 275 325 L 275 323 L 275 320 L 275 319 L 275 317 L 275 315 L 275 313 L 275 312 L 275 311 L 275 309 L 275 305 L 275 300 L 275 296 L 275 291 L 275 288 L 275 285 L 275 283 L 275 281 L 275 279 L 275 276 L 275 275 L 275 273 L 275 271 L 275 268 L 275 265 L 275 264 L 275 261 L 275 259 L 275 257 L 275 256 L 275 253 L 275 251 L 273 248 L 273 245 L 272 243 L 272 241 L 272 240 L 272 239 L 271 237 L 271 235 L 269 233 L 269 231 L 268 228 L 268 225 L 267 223 L 267 220 L 265 217 L 264 215 L 261 213 L 260 211 L 259 209 L 257 208 L 255 205 L 252 205" fill="none" stroke="#271897" stroke-width="2"/>
  <!-- Add markers or other elements here if needed -->
</svg>