<?xml version="1.0" encoding="UTF-8"?>
<svg width="500" height="500" xmlns="http://www.w3.org/2000/svg">
  <path d="M 227 82 L 223 80 L 221 79 L 220 79 L 219 77 L 217 77 L 216 77 L 215 77 L 213 77 L 212 77 L 209 77 L 204 77 L 199 79 L 195 80 L 193 81 L 187 85 L 184 87 L 181 88 L 177 91 L 176 92 L 175 93 L 173 95 L 172 96 L 169 97 L 168 99 L 168 100 L 165 101 L 164 104 L 163 104 L 161 105 L 160 111 L 159 112 L 156 119 L 155 124 L 155 127 L 155 129 L 155 132 L 155 133 L 155 139 L 155 143 L 155 145 L 155 152 L 155 156 L 155 161 L 155 169 L 156 176 L 160 184 L 163 187 L 168 193 L 172 203 L 183 215 L 188 219 L 195 224 L 201 232 L 204 233 L 205 236 L 212 241 L 220 245 L 228 256 L 237 265 L 249 277 L 261 289 L 273 305 L 277 309 L 281 313 L 283 315 L 284 319 L 288 325 L 289 329 L 295 340 L 299 351 L 300 353 L 303 361 L 305 372 L 305 379 L 307 381 L 307 384 L 307 385 L 307 389 L 307 391 L 307 393 L 307 395 L 305 397 L 303 399 L 301 400 L 299 401 L 296 403 L 292 404 L 288 404 L 285 405 L 284 407 L 283 407 L 277 409 L 272 409 L 269 411 L 265 412 L 261 412 L 260 413 L 253 415 L 239 416 L 232 417 L 229 417 L 228 417 L 225 417 L 224 417 L 220 417 L 213 417 L 208 416 L 203 415 L 200 413 L 199 412 L 197 409 L 193 405 L 187 400 L 183 393 L 173 381 L 171 379 L 169 373 L 163 360 L 157 352 L 153 345 L 152 341 L 152 328 L 152 324 L 152 313 L 152 309 L 152 307 L 152 305 L 152 301 L 152 297 L 152 295 L 155 289 L 156 287 L 159 281 L 161 279 L 164 273 L 165 272 L 168 268 L 169 268 L 173 264 L 180 257 L 187 253 L 188 252 L 191 249 L 192 248 L 193 247 L 197 244 L 205 237 L 215 231 L 224 224 L 231 219 L 232 217 L 233 217 L 235 216 L 237 215 L 239 212 L 241 211 L 245 209 L 248 208 L 259 205 L 265 204 L 269 201 L 272 200 L 275 199 L 277 197 L 279 196 L 281 196 L 283 196 L 284 196 L 287 196 L 288 196 L 293 197 L 293 199 L 295 200 L 297 201 L 303 205 L 307 208 L 308 211 L 309 213 L 311 213 L 312 215 L 312 216 L 312 219 L 312 220 L 312 223 L 313 224 L 313 225 L 315 227 L 315 229 L 315 232 L 316 235 L 316 236 L 316 239 L 316 243 L 317 244 L 317 247 L 317 248 L 317 251 L 319 253 L 320 257 L 320 261 L 320 263" fill="none" stroke="#271897" stroke-width="2"/>
  <!-- Add markers or other elements here if needed -->
</svg>