<?xml version="1.0" encoding="UTF-8"?>
<svg width="500" height="500" xmlns="http://www.w3.org/2000/svg">
  <path d="M 224 217 L 224 219 L 223 221 L 220 223 L 217 224 L 208 224 L 196 225 L 191 225 L 188 225 L 185 225 L 184 227 L 183 227 L 180 227 L 179 227 L 176 227 L 169 227 L 164 229 L 161 231 L 159 231 L 156 232 L 155 232 L 155 229 L 155 227 L 155 223 L 155 207 L 155 203 L 156 193 L 157 188 L 157 183 L 157 180 L 159 180 L 159 173 L 159 165 L 159 153 L 159 144 L 159 121 L 159 95 L 159 81 L 159 71 L 159 67 L 159 65 L 164 65 L 173 65 L 179 65 L 185 65 L 195 65 L 207 65 L 228 65 L 260 65 L 280 65 L 283 65 L 284 65 L 287 68 L 291 79 L 295 92 L 296 99 L 297 109 L 300 125 L 301 148 L 301 156 L 301 177 L 301 224 L 301 251 L 301 267 L 301 276 L 301 281 L 301 288 L 301 295 L 301 300 L 301 304 L 301 312 L 301 321 L 301 333 L 301 357 L 301 369 L 301 376 L 301 379 L 297 380 L 288 380 L 280 379 L 273 377 L 263 377 L 252 377 L 235 377 L 223 377 L 212 377 L 200 376 L 196 376 L 192 375 L 189 373 L 180 372 L 163 368 L 155 368 L 147 367 L 141 365 L 140 363 L 140 356 L 141 344 L 141 339 L 143 329 L 144 323 L 145 319 L 147 309 L 147 307 L 147 305 L 148 303 L 148 301 L 149 299 L 155 297 L 161 296 L 168 296 L 177 295 L 191 295 L 200 295 L 205 295 L 207 295 L 211 295 L 213 295 L 216 295 L 219 295 L 220 295 L 223 295 L 224 295 L 225 295 L 228 295 L 233 295 L 236 295 L 239 295 L 240 295 L 241 293 L 243 293 L 244 292 L 245 289 L 247 288 L 248 284 L 249 281 L 253 273 L 255 268 L 259 264 L 260 261 L 261 259 L 263 257 L 263 255 L 263 249 L 263 245 L 265 237 L 267 232 L 267 227 L 268 219 L 268 215 L 268 212 L 268 209 L 268 207 L 268 201 L 268 199 L 268 196 L 268 193 L 268 191 L 268 188 L 268 185 L 268 181 L 268 177 L 268 173 L 268 171 L 268 164 L 268 156 L 267 151 L 267 147 L 265 144 L 265 136 L 264 136 L 263 128 L 261 128 L 261 125 L 260 124 L 257 123 L 256 120 L 255 117 L 253 113 L 253 112 L 249 109 L 247 109 L 245 109 L 240 109 L 235 109 L 231 109 L 220 108 L 207 107 L 196 105 L 189 105 L 188 105 L 185 105 L 184 105 L 183 105 L 181 105 L 180 111 L 180 115 L 180 117 L 180 119 L 179 125 L 179 132 L 179 140 L 177 147 L 176 153 L 176 160 L 176 167 L 176 169 L 176 172 L 176 175" fill="none" stroke="#271897" stroke-width="2"/>
  <!-- Add markers or other elements here if needed -->
</svg>