<?xml version="1.0" encoding="UTF-8"?>
<svg width="500" height="500" xmlns="http://www.w3.org/2000/svg">
  <path d="M 53 205 L 51 204 L 48 201 L 47 200 L 45 200 L 44 200 L 43 200 L 41 200 L 36 201 L 33 203 L 32 204 L 29 205 L 28 208 L 25 211 L 25 213 L 21 217 L 19 220 L 19 224 L 19 225 L 19 227 L 19 235 L 19 239 L 19 241 L 19 245 L 19 248 L 19 257 L 19 261 L 19 264 L 20 264 L 21 268 L 23 269 L 24 269 L 27 271 L 29 271 L 31 271 L 33 269 L 33 268 L 35 267 L 35 265 L 36 265 L 37 264 L 39 263 L 40 260 L 40 257 L 41 253 L 41 251 L 43 247 L 44 241 L 44 239 L 44 236 L 44 232 L 44 231 L 45 228 L 45 227 L 45 225 L 47 220 L 47 217 L 49 212 L 51 207 L 52 201 L 53 201 L 53 200 L 53 199 L 53 200 L 53 203 L 53 205 L 52 209 L 51 212 L 51 215 L 49 221 L 48 233 L 48 236 L 47 240 L 45 248 L 45 253 L 45 256 L 45 261 L 45 263 L 45 268 L 45 273 L 45 276 L 45 279 L 45 281 L 45 287 L 45 288 L 47 289 L 49 289 L 52 291 L 55 291 L 56 291 L 59 291 L 63 291 L 65 291 L 67 291 L 69 288 L 69 285 L 73 283 L 75 277 L 76 275 L 76 272 L 76 267 L 76 259 L 77 252 L 79 249 L 79 247 L 79 244 L 80 240 L 80 237 L 80 233 L 80 227 L 80 219 L 80 211 L 80 197 L 80 188 L 80 181 L 80 176 L 81 171 L 81 164 L 81 156 L 81 151 L 83 148 L 83 143 L 83 141 L 83 140 L 83 137 L 83 135 L 83 132 L 83 133 L 83 140 L 83 144 L 83 151 L 83 153 L 83 161 L 83 167 L 83 171 L 83 176 L 83 180 L 83 184 L 83 189 L 83 192 L 83 193 L 83 196 L 83 199 L 84 201 L 85 207 L 85 209 L 85 211 L 85 212 L 85 213 L 85 216 L 85 219 L 85 223 L 85 225 L 85 228 L 87 231 L 87 233 L 87 235 L 88 237 L 88 240 L 88 244 L 88 245 L 88 248 L 88 251 L 89 257 L 89 259 L 89 263 L 89 264 L 89 267 L 89 272 L 89 279 L 91 283 L 91 284 L 91 287 L 92 287 L 93 288 L 95 291 L 96 292 L 97 293 L 100 293 L 103 295 L 105 295 L 108 295 L 109 295 L 113 295 L 119 293 L 119 292 L 120 289 L 123 287 L 125 284 L 125 280 L 127 277 L 127 272 L 127 267 L 128 261 L 128 255 L 128 248 L 128 241 L 128 229 L 128 221 L 128 211 L 128 205 L 128 192 L 128 184 L 128 175 L 128 171 L 128 163 L 128 149 L 128 139 L 128 132 L 128 127 L 128 123 L 128 121 L 127 119 L 125 119 L 125 116 L 124 115 L 123 113 L 121 113 L 119 117 L 117 121 L 117 127 L 117 137 L 116 141 L 116 152 L 116 159 L 116 169 L 116 173 L 116 189 L 116 193 L 116 197 L 116 203 L 116 209 L 116 212 L 117 215 L 119 219 L 119 223 L 120 231 L 120 235 L 121 241 L 121 252 L 123 256 L 124 263 L 125 265 L 127 275 L 129 285 L 131 291 L 132 295 L 133 297 L 136 301 L 137 304 L 139 307 L 143 308 L 143 309 L 143 311 L 145 312 L 147 312 L 149 312 L 151 312 L 152 311 L 153 309 L 155 309 L 156 308 L 157 307 L 161 301 L 163 297 L 167 291 L 168 287 L 168 284 L 169 281 L 171 277 L 172 277 L 173 275" fill="none" stroke="#271897" stroke-width="2"/><path d="M 187 216 L 185 216 L 188 216 L 191 216 L 195 216 L 197 216 L 201 216 L 203 216 L 209 216 L 215 219 L 217 220 L 219 223 L 221 225 L 224 227 L 225 229 L 228 232 L 229 237 L 231 244 L 233 253 L 235 260 L 235 267 L 235 271 L 235 276 L 235 283 L 235 288 L 235 292 L 235 293 L 233 297 L 232 299 L 229 301 L 227 303 L 223 304 L 217 304 L 215 304 L 209 304 L 205 297 L 204 292 L 201 284 L 200 281 L 199 276 L 199 271 L 199 267 L 199 265 L 199 263 L 199 256 L 199 253 L 204 245 L 212 239 L 217 227 L 221 220 L 221 217 L 223 216 L 224 213 L 225 213 L 229 209 L 233 207 L 235 207 L 236 205 L 237 205" fill="none" stroke="#271897" stroke-width="2"/><path d="M 254 208 L 252 207 L 251 215 L 251 224 L 251 232 L 251 239 L 251 248 L 251 256 L 251 261 L 251 263 L 251 265 L 251 268 L 251 271 L 251 273 L 251 276 L 251 279 L 251 281 L 251 283 L 252 284 L 255 284 L 256 284 L 257 284 L 259 284 L 260 284 L 263 284 L 264 284 L 268 284 L 269 284 L 275 279 L 276 276 L 276 273 L 277 259 L 277 253 L 277 241 L 277 231 L 277 216 L 277 213 L 277 209 L 277 207 L 277 205 L 277 203 L 277 200" fill="none" stroke="#271897" stroke-width="2"/><path d="M 297 212 L 296 211 L 296 213 L 296 217 L 296 224 L 296 229 L 296 239 L 296 248 L 296 255 L 296 263 L 296 269 L 296 272 L 296 275 L 296 276 L 296 277 L 296 281 L 296 284 L 295 277 L 295 267 L 292 259 L 292 253 L 291 244 L 289 236 L 289 227 L 289 220 L 289 215 L 289 211 L 289 209 L 289 208 L 289 205 L 289 204 L 291 204 L 293 203 L 296 203 L 300 201 L 303 201 L 304 201 L 305 201 L 308 201 L 309 201 L 312 203 L 316 207 L 316 211 L 317 215 L 319 217 L 319 220 L 320 223 L 320 224 L 320 227 L 321 232 L 321 233 L 323 235 L 323 237 L 324 237 L 324 243 L 325 247 L 325 249 L 325 251 L 325 252 L 325 255 L 327 263 L 327 264 L 327 267 L 327 269 L 327 271 L 327 276 L 328 281 L 328 283 L 329 284 L 331 284 L 331 283 L 332 279" fill="none" stroke="#271897" stroke-width="2"/><path d="M 375 198 L 375 197 L 375 196 L 373 196 L 371 196 L 368 196 L 367 197 L 365 197 L 363 199 L 360 200 L 359 203 L 356 205 L 353 208 L 349 212 L 345 223 L 345 227 L 345 231 L 345 235 L 345 236 L 345 241 L 347 247 L 353 255 L 359 259 L 361 260 L 363 261 L 364 263 L 367 267 L 368 271 L 369 273 L 371 276 L 371 277 L 372 280 L 372 281 L 372 284 L 372 288 L 372 289 L 372 291 L 369 292 L 367 292 L 364 292 L 361 292 L 357 292 L 353 292 L 351 292 L 347 288 L 345 285 L 345 283 L 344 280 L 344 277 L 344 273" fill="none" stroke="#271897" stroke-width="2"/>
</svg>