<?xml version="1.0" encoding="UTF-8"?>
<svg width="500" height="500" xmlns="http://www.w3.org/2000/svg">
  <path d="M 235 256  L 236 256  L 236 257  L 234 258  L 233 258  L 232 259  L 233 260  L 235 260  L 236 260  L 238 260  L 239 260  L 240 260  L 240 258  L 240 257  L 240 255  L 240 254  L 238 254  L 236 254  L 234 254  L 233 256  L 233 258  L 233 260  L 233 261  L 233 262  L 233 264  L 233 265  L 233 266  L 234 266  L 236 264  L 236 262  L 236 260  L 236 257  L 236 256  L 236 255  L 236 254  L 236 255  L 236 257  L 236 258  L 237 260  L 237 261  L 238 261  L 239 261  L 239 259  L 237 256  L 235 255  L 231 253  L 230 252  L 230 254  L 230 259  L 230 264  L 231 266  L 233 267  L 235 268  L 236 268  L 238 268  L 238 267  L 239 265  L 239 263  L 239 262  L 239 261  L 240 260  L 240 258  L 239 257  L 237 256  L 235 256  L 234 255  L 232 255  L 231 255  L 231 256  L 231 258  L 231 259  L 231 260  L 231 259  L 231 257  L 231 256  L 231 255  L 231 256  L 232 257  L 234 258  L 236 259  L 237 260  L 238 260  L 239 260  L 240 260  L 240 259  L 241 258  L 241 257  L 241 256  L 239 255  L 238 255  L 235 256  L 234 256  L 234 258  L 233 259  L 233 261  L 233 262  L 233 264  L 233 265  L 233 266  L 234 268  L 235 268  L 237 268  L 238 268  L 239 268  L 240 267  L 241 266  L 243 264  L 243 260  L 243 258  L 242 258  L 240 258  L 239 259  L 239 261  L 239 262  L 239 264  L 239 266  L 239 267  L 239 269  L 239 268  L 239 267  L 239 265  L 239 264  L 239 263  L 239 261  L 238 261  L 237 259  L 236 259  L 235 259  L 233 259  L 232 259  L 230 259  L 229 260  L 228 260  L 228 262  L 229 263  L 230 263  L 233 264  L 235 265  L 236 265 " fill="none" stroke="#271897" stroke-width="2"/>
</svg>