<?xml version="1.0" encoding="UTF-8"?>
<svg width="500" height="500" xmlns="http://www.w3.org/2000/svg">
  <path d="M 250 222  L 248 222  L 243 221  L 242 221  L 242 224  L 242 230  L 242 235  L 242 239  L 242 241  L 244 243  L 245 243  L 248 243  L 249 243  L 250 243  L 252 241  L 253 239  L 253 238  L 253 236  L 253 235  L 253 233  L 253 231  L 252 230  L 249 229  L 248 229  L 244 227  L 243 226  L 242 226  L 240 226  L 239 226  L 239 227  L 239 229  L 239 231  L 239 232  L 244 233  L 251 233  L 254 233  L 255 233  L 256 233  L 257 233  L 258 233  L 259 233  L 259 231  L 259 230  L 259 228  L 258 227  L 257 226  L 254 225  L 251 225  L 248 225  L 247 226  L 247 228  L 247 229  L 246 231  L 246 232  L 246 233  L 246 234  L 247 234  L 249 234 " fill="none" stroke="#271897" stroke-width="2"/>
</svg>