<?xml version="1.0" encoding="UTF-8"?>
<svg width="500" height="500" xmlns="http://www.w3.org/2000/svg">
  <path d="M 111 137 L 112 137 L 113 139 L 113 141 L 113 144 L 113 147 L 115 151 L 115 155 L 115 156 L 115 157 L 115 159 L 115 161 L 115 164 L 115 165 L 115 169 L 115 172 L 115 175 L 117 184 L 119 187 L 119 188 L 119 191 L 120 200 L 120 203 L 121 208 L 121 213 L 123 223 L 124 229 L 124 235 L 124 241 L 124 247 L 124 251 L 124 257 L 124 264 L 124 267 L 124 272 L 124 273 L 124 280 L 124 283 L 124 284 L 124 288 L 124 292 L 124 295 L 125 299 L 128 307 L 128 315 L 129 320 L 131 327 L 131 329 L 131 331 L 131 335 L 131 341 L 132 344 L 136 355 L 137 365 L 137 368 L 137 369 L 139 372 L 139 373 L 139 376 L 139 377" fill="none" stroke="#271897" stroke-width="2"/><path d="M 125 264 L 125 267 L 128 272 L 131 276 L 132 279 L 140 288 L 147 297 L 156 307 L 160 313 L 167 323 L 175 329 L 185 340 L 195 348 L 197 352 L 203 360 L 207 365 L 211 373 L 215 379 L 216 381 L 221 389 L 225 391" fill="none" stroke="#271897" stroke-width="2"/><path d="M 138 272 L 136 272 L 144 267 L 164 251 L 169 247 L 180 231 L 193 211 L 209 181 L 217 165 L 221 152 L 225 140 L 227 131 L 227 129 L 228 124" fill="none" stroke="#271897" stroke-width="2"/><path d="M 230 289 L 227 287 L 227 289 L 227 293 L 229 300 L 231 309 L 232 317 L 233 324 L 235 332 L 235 337 L 236 343 L 236 345 L 236 347 L 236 349 L 236 355 L 236 356 L 237 360 L 239 361 L 239 360 L 239 357 L 239 344 L 239 333 L 237 324 L 236 317 L 233 311 L 232 305 L 231 297 L 231 293 L 231 291 L 231 288 L 231 287 L 231 284 L 231 281 L 232 276 L 236 272 L 239 271 L 247 268 L 249 267 L 252 265 L 253 265 L 259 265 L 260 265 L 264 269 L 267 277 L 267 281 L 268 283 L 269 291 L 271 296 L 271 299 L 272 301 L 272 305 L 273 311 L 275 312 L 275 315 L 275 320 L 275 321 L 275 323 L 275 324 L 276 320 L 277 315 L 280 308 L 280 300 L 281 291 L 283 288 L 283 284 L 285 279 L 288 273 L 289 271 L 291 267 L 295 265 L 297 264 L 301 263 L 308 259 L 312 256 L 315 256 L 317 256 L 321 256 L 323 256 L 327 256 L 328 256 L 331 257 L 335 260 L 337 265 L 339 272 L 339 277 L 339 284 L 339 293 L 339 301 L 339 308 L 339 324 L 337 329 L 335 336 L 335 343 L 335 348 L 333 357 L 333 361 L 333 364 L 333 367 L 333 369 L 333 372 L 333 373" fill="none" stroke="#271897" stroke-width="2"/>
</svg>