<?xml version="1.0" encoding="UTF-8"?>
<svg width="500" height="500" xmlns="http://www.w3.org/2000/svg">
  <path d="M 55 225 L 56 223 L 57 221 L 59 221 L 60 221 L 61 223 L 61 225 L 61 228 L 63 231 L 64 237 L 65 244 L 67 252 L 68 259 L 69 267 L 69 271 L 71 279 L 71 285 L 71 289 L 71 296 L 71 309 L 71 312 L 71 316 L 71 319 L 71 320 L 71 323 L 71 324 L 71 328 L 71 331 L 72 335 L 72 336" fill="none" stroke="#271897" stroke-width="2"/><path d="M 55 217 L 56 216 L 57 216 L 59 215 L 60 213 L 61 213 L 63 215 L 64 217 L 65 220 L 68 227 L 71 231 L 72 233 L 72 235 L 73 239 L 73 240 L 75 241 L 75 244 L 75 245 L 75 248 L 76 251 L 77 252 L 79 255 L 80 256 L 80 259 L 81 260 L 83 260 L 84 259 L 84 255 L 85 252 L 85 251 L 85 248 L 85 247 L 85 244 L 87 237 L 88 232 L 89 229 L 91 224 L 91 223 L 91 220 L 91 217 L 92 215 L 93 212 L 95 207 L 96 205 L 97 204 L 99 207 L 99 211 L 99 212 L 99 216 L 99 220 L 99 224 L 99 227 L 99 229 L 99 236 L 99 241 L 99 248 L 99 253 L 99 260 L 99 264 L 99 269 L 97 275 L 97 281 L 97 285 L 97 288 L 97 291 L 97 293 L 97 295 L 97 297 L 97 303 L 97 309 L 97 316 L 97 319 L 97 324 L 97 325 L 97 328 L 97 329 L 97 332 L 97 335 L 99 337 L 99 339 L 99 340" fill="none" stroke="#271897" stroke-width="2"/><path d="M 130 244 L 129 243 L 128 243 L 128 244 L 128 249 L 128 255 L 128 259 L 128 264 L 128 268 L 128 271 L 128 277 L 128 281 L 128 284 L 128 289 L 128 291 L 128 295 L 128 296 L 128 299 L 128 304 L 129 307 L 129 311 L 129 312 L 129 315 L 129 316 L 131 319 L 131 320 L 132 321 L 132 323 L 133 325" fill="none" stroke="#271897" stroke-width="2"/><path d="M 134 328" fill="none" stroke="#271897" stroke-width="2"/><path d="M 159 249 L 157 249 L 157 252 L 157 257 L 157 265 L 157 273 L 157 285 L 157 289 L 157 297 L 157 305 L 157 308 L 157 312 L 157 313 L 157 315 L 157 316 L 157 323 L 157 324 L 157 325 L 157 328 L 157 332 L 157 333 L 157 337 L 156 340 L 155 340 L 153 336 L 152 332" fill="none" stroke="#271897" stroke-width="2"/><path d="M 159 253 L 160 251 L 160 249 L 160 247 L 161 247 L 163 247 L 165 247 L 167 247 L 169 247 L 171 247 L 175 247 L 179 247 L 181 247 L 184 247 L 185 247 L 188 247 L 191 251 L 192 256 L 192 260 L 193 263 L 193 269 L 193 276 L 193 280 L 195 283 L 195 285 L 195 288 L 195 289 L 195 292 L 195 295 L 195 297 L 195 300 L 195 301 L 195 307 L 195 311 L 195 315 L 195 317 L 195 320 L 195 324 L 195 327" fill="none" stroke="#271897" stroke-width="2"/>
</svg>