<?xml version="1.0" encoding="UTF-8"?>
<svg width="500" height="500" xmlns="http://www.w3.org/2000/svg">
  <path d="M 175 210 L 174 210 L 174 209 L 173 208 L 173 204 L 173 198 L 173 191 L 173 188 L 173 185 L 173 182 L 173 181 L 173 180 L 173 179 L 175 179 L 178 179 L 181 179 L 188 179 L 193 179 L 197 179 L 202 179 L 209 179 L 212 179 L 220 179 L 227 179 L 233 180 L 237 181 L 239 181 L 241 181 L 243 181 L 244 181 L 245 181 L 247 181 L 248 181 L 251 181 L 253 180 L 253 180 L 255 180 L 255 180 L 257 180 L 257 180 L 258 180 L 259 180 L 259 180 L 260 180 L 261 180 L 261 181 L 261 186 L 261 192 L 261 196 L 261 203 L 261 208 L 261 213 L 261 218 L 261 224 L 261 225 L 261 231 L 261 233 L 261 236 L 261 237 L 261 238 L 261 241 L 261 245 L 261 248 L 261 252 L 261 256 L 261 258 L 261 259 L 261 261 L 261 262 L 261 264 L 261 266 L 261 267 L 261 268 L 261 269 L 261 269 L 257 269 L 256 269 L 254 269 L 251 269 L 248 269 L 239 269 L 231 269 L 226 269 L 223 269 L 217 269 L 211 268 L 206 268 L 203 268 L 203 268 L 202 268 L 199 268 L 197 268 L 195 268 L 189 268 L 187 268 L 186 268 L 185 268 L 185 268 L 184 268 L 183 268 L 183 268 L 182 268 L 181 268 L 180 268 L 179 268 L 178 268 L 177 268 L 175 268 L 175 268 L 173 268 L 173 266 L 173 266 L 173 265 L 173 264 L 173 263 L 173 262 L 173 261 L 173 260 L 173 258 L 173 258 L 173 255 L 173 253 L 173 249 L 173 248 L 173 246 L 172 246" fill="none" stroke="#271897" stroke-width="2"/><path d="M 187 244 L 187 243 L 187 242 L 187 242 L 187 241 L 187 240 L 187 239 L 187 238 L 187 236 L 187 236 L 187 235 L 187 236 L 187 236 L 187 237 L 187 239 L 187 240 L 187 240 L 187 242 L 187 242 L 188 244 L 189 246 L 189 246 L 190 247 L 191 248 L 191 248 L 193 250 L 195 250 L 196 251 L 197 252 L 199 252 L 199 252 L 200 252 L 201 252 L 203 252 L 205 252 L 207 252 L 208 252 L 209 252 L 211 252 L 212 252 L 213 252 L 213 252 L 215 252 L 216 252 L 217 252 L 218 252 L 219 251 L 219 251 L 220 251 L 221 250 L 222 250 L 223 250 L 225 250 L 227 249 L 227 249 L 229 248 L 229 248 L 231 248 L 232 246 L 233 246 L 233 245 L 233 244 L 234 243 L 234 242 L 235 240 L 235 239 L 235 238 L 235 237 L 235 234" fill="none" stroke="#271897" stroke-width="2"/>
</svg>