<?xml version="1.0" encoding="UTF-8"?>
<svg width="500" height="500" xmlns="http://www.w3.org/2000/svg">
  <path d="M 147 174 L 147 176 L 149 176 L 153 177 L 164 177 L 175 177 L 185 177 L 197 177 L 209 177 L 221 177 L 233 177 L 243 177 L 252 177 L 260 177 L 269 177" fill="none" stroke="#271897" stroke-width="2"/><path d="M 150 230 L 152 231 L 155 231 L 157 232 L 164 233 L 172 235 L 181 235 L 188 235 L 192 235 L 204 235 L 216 235 L 227 235 L 237 235 L 244 235 L 249 235 L 251 235 L 252 235 L 256 235 L 259 235 L 264 235 L 268 235 L 273 235 L 276 235 L 281 235" fill="none" stroke="#271897" stroke-width="2"/>
</svg>