<?xml version="1.0" encoding="UTF-8"?>
<svg width="500" height="500" xmlns="http://www.w3.org/2000/svg">
  <path d="M 151 174 L 149 171 L 151 171 L 152 173 L 155 175 L 156 176 L 157 177 L 160 179 L 165 185 L 171 188 L 171 189 L 173 192 L 177 195 L 181 200 L 184 201 L 187 203 L 189 205 L 191 208 L 196 215 L 197 219 L 200 221 L 204 223 L 211 227 L 211 228 L 216 232 L 219 237 L 221 240 L 223 241 L 224 243 L 225 243 L 227 244 L 228 245 L 231 249 L 233 252 L 239 257 L 241 260 L 243 263 L 244 264 L 245 267 L 247 269 L 247 271 L 249 273 L 251 276 L 252 277 L 253 280 L 257 285 L 260 288 L 263 291 L 264 295 L 267 299 L 271 303 L 272 305 L 273 305 L 276 308 L 277 311 L 280 315 L 283 317 L 284 319 L 285 319 L 285 320 L 287 321 L 289 324 L 291 327 L 292 328 L 293 328 L 295 331 L 295 332 L 296 335 L 299 336 L 300 337 L 301 339 L 301 340 L 303 340 L 304 343 L 305 344 L 308 348 L 309 351 L 311 351 L 312 351 L 313 352 L 316 355" fill="none" stroke="#271897" stroke-width="2"/><path d="M 317 165 L 313 165 L 311 167 L 309 167 L 308 169 L 307 171 L 305 173 L 303 176 L 301 177 L 300 180 L 300 184 L 299 185 L 296 187 L 295 188 L 293 191 L 292 193 L 291 195 L 289 197 L 287 199 L 285 201 L 283 205 L 281 207 L 280 208 L 279 209 L 277 211 L 276 212 L 275 213 L 275 216 L 273 216 L 273 219 L 271 220 L 269 221 L 268 224 L 267 225 L 264 228 L 263 228 L 263 229 L 261 232 L 259 233 L 257 235 L 256 237 L 255 239 L 253 240 L 252 241 L 251 241 L 251 243 L 248 245 L 247 247 L 245 248 L 244 248 L 243 251 L 241 252 L 240 253 L 237 256 L 236 257 L 235 259 L 233 260 L 233 261 L 232 261 L 231 263 L 229 264 L 228 265 L 227 265 L 225 268 L 225 269 L 225 271 L 224 272 L 221 273 L 220 275 L 220 276 L 219 276 L 217 279 L 215 280 L 213 281 L 212 283 L 212 284 L 209 287 L 208 287 L 207 287 L 205 289 L 204 292 L 203 293 L 201 297 L 200 297 L 199 299 L 197 300 L 195 301 L 195 303 L 193 304 L 192 305 L 191 305 L 191 307 L 189 308 L 185 313 L 184 315 L 183 315 L 181 316 L 179 319 L 177 320 L 176 323 L 173 324 L 172 325 L 172 327 L 169 328 L 168 328 L 167 328 L 165 329 L 164 332 L 163 333 L 161 335 L 161 336 L 160 337 L 159 337 L 157 339 L 155 341 L 153 343 L 151 345" fill="none" stroke="#271897" stroke-width="2"/>
</svg>